<mxfile host="app.diagrams.net" modified="2024-01-17T09:08:54.981Z" agent="Mozilla/5.0 (Windows NT 10.0; Win64; x64) AppleWebKit/537.36 (KHTML, like Gecko) Chrome/120.0.0.0 Safari/537.36" etag="LraxBFAX4V1Ayew0zNNt" version="22.1.18" type="github" pages="10">
  <diagram id="6qApV0sVtITQiH9Zs9IU" name="素材库">
    <mxGraphModel dx="1434" dy="746" grid="1" gridSize="10" guides="1" tooltips="1" connect="1" arrows="1" fold="1" page="1" pageScale="1" pageWidth="827" pageHeight="1169" math="0" shadow="0">
      <root>
        <mxCell id="0" />
        <mxCell id="1" parent="0" />
        <mxCell id="3dimdPH7--5eGjd8dTHQ-1" style="edgeStyle=orthogonalEdgeStyle;rounded=0;orthogonalLoop=1;jettySize=auto;html=1;shape=flexArrow;strokeWidth=1;fillColor=#B3B3B3;strokeColor=none;fontSize=15;" parent="1" edge="1">
          <mxGeometry relative="1" as="geometry">
            <mxPoint x="50" y="430" as="sourcePoint" />
            <Array as="points">
              <mxPoint x="250" y="430" />
              <mxPoint x="250" y="430" />
            </Array>
            <mxPoint x="140" y="430" as="targetPoint" />
          </mxGeometry>
        </mxCell>
        <mxCell id="3dimdPH7--5eGjd8dTHQ-2" style="edgeStyle=orthogonalEdgeStyle;rounded=0;orthogonalLoop=1;jettySize=auto;html=1;shape=flexArrow;strokeWidth=1;fillColor=#B3B3B3;strokeColor=none;fontSize=15;" parent="1" edge="1">
          <mxGeometry relative="1" as="geometry">
            <mxPoint x="280" y="350" as="sourcePoint" />
            <Array as="points">
              <mxPoint x="470" y="410" />
              <mxPoint x="470" y="410" />
            </Array>
            <mxPoint x="280" y="440" as="targetPoint" />
          </mxGeometry>
        </mxCell>
        <mxCell id="3dimdPH7--5eGjd8dTHQ-3" style="edgeStyle=orthogonalEdgeStyle;rounded=0;orthogonalLoop=1;jettySize=auto;html=1;shape=flexArrow;strokeWidth=1;fillColor=#B3B3B3;strokeColor=none;fontSize=15;" parent="1" edge="1">
          <mxGeometry relative="1" as="geometry">
            <mxPoint x="390" y="490" as="sourcePoint" />
            <Array as="points">
              <mxPoint x="580" y="460" />
              <mxPoint x="580" y="460" />
            </Array>
            <mxPoint x="390" y="400" as="targetPoint" />
          </mxGeometry>
        </mxCell>
        <mxCell id="3dimdPH7--5eGjd8dTHQ-4" value="②" style="text;html=1;strokeColor=none;fillColor=none;align=center;verticalAlign=middle;whiteSpace=wrap;rounded=0;strokeWidth=1;fontSize=17;" parent="1" vertex="1">
          <mxGeometry x="540" y="310" width="60" height="30" as="geometry" />
        </mxCell>
        <mxCell id="3dimdPH7--5eGjd8dTHQ-5" value="①" style="text;html=1;strokeColor=none;fillColor=none;align=center;verticalAlign=middle;whiteSpace=wrap;rounded=0;strokeWidth=1;fontSize=17;" parent="1" vertex="1">
          <mxGeometry x="430" y="310" width="60" height="30" as="geometry" />
        </mxCell>
        <mxCell id="3dimdPH7--5eGjd8dTHQ-6" value="③" style="text;html=1;strokeColor=none;fillColor=none;align=center;verticalAlign=middle;whiteSpace=wrap;rounded=0;strokeWidth=1;fontSize=17;" parent="1" vertex="1">
          <mxGeometry x="630" y="310" width="60" height="30" as="geometry" />
        </mxCell>
        <mxCell id="3dimdPH7--5eGjd8dTHQ-7" value="④" style="text;html=1;strokeColor=none;fillColor=none;align=center;verticalAlign=middle;whiteSpace=wrap;rounded=0;strokeWidth=1;fontSize=17;" parent="1" vertex="1">
          <mxGeometry x="735" y="300" width="60" height="30" as="geometry" />
        </mxCell>
        <mxCell id="3dimdPH7--5eGjd8dTHQ-8" value="⑤" style="text;html=1;strokeColor=none;fillColor=none;align=center;verticalAlign=middle;whiteSpace=wrap;rounded=0;strokeWidth=1;fontSize=17;" parent="1" vertex="1">
          <mxGeometry x="480" y="360" width="60" height="30" as="geometry" />
        </mxCell>
        <mxCell id="3dimdPH7--5eGjd8dTHQ-9" value="⑥" style="text;html=1;strokeColor=none;fillColor=none;align=center;verticalAlign=middle;whiteSpace=wrap;rounded=0;strokeWidth=1;fontSize=17;" parent="1" vertex="1">
          <mxGeometry x="550" y="360" width="60" height="30" as="geometry" />
        </mxCell>
        <mxCell id="3dimdPH7--5eGjd8dTHQ-10" value="⑦" style="text;html=1;strokeColor=none;fillColor=none;align=center;verticalAlign=middle;whiteSpace=wrap;rounded=0;strokeWidth=1;fontSize=17;" parent="1" vertex="1">
          <mxGeometry x="640" y="350" width="60" height="30" as="geometry" />
        </mxCell>
        <mxCell id="3dimdPH7--5eGjd8dTHQ-11" value="⑧" style="text;html=1;strokeColor=none;fillColor=none;align=center;verticalAlign=middle;whiteSpace=wrap;rounded=0;strokeWidth=1;fontSize=17;" parent="1" vertex="1">
          <mxGeometry x="740" y="360" width="60" height="30" as="geometry" />
        </mxCell>
        <mxCell id="CsCoO1ijQu3HENorWunc-1" value="" style="ellipse;fillColor=strokeColor;html=1;fontSize=15;" parent="1" vertex="1">
          <mxGeometry x="100" y="550" width="25" height="25" as="geometry" />
        </mxCell>
        <mxCell id="1H1SoVv7XhslezDeHJ4O-1" value="" style="ellipse;fillColor=strokeColor;html=1;fontSize=15;" parent="1" vertex="1">
          <mxGeometry x="300" y="525" width="25" height="25" as="geometry" />
        </mxCell>
        <mxCell id="Ccja7VKXbYhgyl35PaLA-1" value="" style="rounded=0;whiteSpace=wrap;html=1;fontSize=15;" parent="1" vertex="1">
          <mxGeometry x="530" y="460" width="120" height="60" as="geometry" />
        </mxCell>
        <mxCell id="LDWuJKYkh9WPVgpIZeKQ-1" value="通过" style="text;html=1;strokeColor=none;fillColor=none;align=center;verticalAlign=middle;whiteSpace=wrap;rounded=0;strokeWidth=1;fontSize=17;" parent="1" vertex="1">
          <mxGeometry x="430" y="510" width="60" height="30" as="geometry" />
        </mxCell>
      </root>
    </mxGraphModel>
  </diagram>
  <diagram id="TplgWbxs8bR8_d2JnzZC" name="专家库">
    <mxGraphModel dx="1434" dy="746" grid="1" gridSize="10" guides="1" tooltips="1" connect="1" arrows="1" fold="1" page="1" pageScale="1" pageWidth="827" pageHeight="1169" math="0" shadow="0">
      <root>
        <mxCell id="0" />
        <mxCell id="1" parent="0" />
        <mxCell id="WlRy47bLavNxaS4BNk72-3" value="输入关键字" style="rounded=0;whiteSpace=wrap;html=1;fontSize=15;" parent="1" vertex="1">
          <mxGeometry x="370" y="490" width="120" height="60" as="geometry" />
        </mxCell>
        <mxCell id="WlRy47bLavNxaS4BNk72-4" style="edgeStyle=orthogonalEdgeStyle;rounded=0;orthogonalLoop=1;jettySize=auto;html=1;shape=flexArrow;strokeWidth=1;fillColor=#B3B3B3;strokeColor=none;fontSize=15;" parent="1" edge="1">
          <mxGeometry relative="1" as="geometry">
            <mxPoint x="300" y="600" as="sourcePoint" />
            <Array as="points">
              <mxPoint x="480" y="519.5" />
              <mxPoint x="480" y="519.5" />
            </Array>
            <mxPoint x="370" y="519.5" as="targetPoint" />
          </mxGeometry>
        </mxCell>
        <mxCell id="WlRy47bLavNxaS4BNk72-5" value="" style="ellipse;fillColor=strokeColor;html=1;fontSize=15;" parent="1" vertex="1">
          <mxGeometry x="210" y="585" width="25" height="25" as="geometry" />
        </mxCell>
        <mxCell id="WlRy47bLavNxaS4BNk72-7" value="" style="ellipse;fillColor=strokeColor;html=1;fontSize=15;" parent="1" vertex="1">
          <mxGeometry x="1040" y="585" width="25" height="25" as="geometry" />
        </mxCell>
        <mxCell id="VUFKNVF6qT9xStpMJ2az-1" value="专家业务类别条件筛选" style="rounded=0;whiteSpace=wrap;html=1;fontSize=15;" parent="1" vertex="1">
          <mxGeometry x="370" y="640" width="120" height="60" as="geometry" />
        </mxCell>
        <mxCell id="VUFKNVF6qT9xStpMJ2az-3" style="edgeStyle=orthogonalEdgeStyle;rounded=0;orthogonalLoop=1;jettySize=auto;html=1;shape=flexArrow;strokeWidth=1;fillColor=#B3B3B3;strokeColor=none;fontSize=15;exitX=1;exitY=0.5;exitDx=0;exitDy=0;" parent="1" source="WlRy47bLavNxaS4BNk72-5" edge="1">
          <mxGeometry relative="1" as="geometry">
            <mxPoint x="300" y="600" as="sourcePoint" />
            <Array as="points">
              <mxPoint x="300" y="598" />
              <mxPoint x="300" y="670" />
            </Array>
            <mxPoint x="370" y="670" as="targetPoint" />
          </mxGeometry>
        </mxCell>
        <mxCell id="VUFKNVF6qT9xStpMJ2az-11" style="edgeStyle=orthogonalEdgeStyle;rounded=0;orthogonalLoop=1;jettySize=auto;html=1;shape=flexArrow;strokeWidth=1;fillColor=#B3B3B3;strokeColor=none;fontSize=15;" parent="1" edge="1">
          <mxGeometry relative="1" as="geometry">
            <mxPoint x="400" y="550" as="sourcePoint" />
            <Array as="points">
              <mxPoint x="590" y="610" />
              <mxPoint x="590" y="610" />
            </Array>
            <mxPoint x="400" y="640" as="targetPoint" />
          </mxGeometry>
        </mxCell>
        <mxCell id="VUFKNVF6qT9xStpMJ2az-13" style="edgeStyle=orthogonalEdgeStyle;rounded=0;orthogonalLoop=1;jettySize=auto;html=1;shape=flexArrow;strokeWidth=1;fillColor=#B3B3B3;strokeColor=none;fontSize=15;" parent="1" edge="1">
          <mxGeometry relative="1" as="geometry">
            <mxPoint x="450" y="640" as="sourcePoint" />
            <Array as="points">
              <mxPoint x="640" y="610" />
              <mxPoint x="640" y="610" />
            </Array>
            <mxPoint x="450" y="550" as="targetPoint" />
          </mxGeometry>
        </mxCell>
        <mxCell id="VUFKNVF6qT9xStpMJ2az-14" value="专家清单" style="rounded=0;whiteSpace=wrap;html=1;fontSize=15;" parent="1" vertex="1">
          <mxGeometry x="520" y="567.5" width="120" height="60" as="geometry" />
        </mxCell>
        <mxCell id="VUFKNVF6qT9xStpMJ2az-15" style="edgeStyle=orthogonalEdgeStyle;rounded=0;orthogonalLoop=1;jettySize=auto;html=1;shape=flexArrow;strokeWidth=1;fillColor=#B3B3B3;strokeColor=none;fontSize=15;entryX=0.5;entryY=0;entryDx=0;entryDy=0;" parent="1" target="VUFKNVF6qT9xStpMJ2az-14" edge="1">
          <mxGeometry relative="1" as="geometry">
            <mxPoint x="490" y="519.5" as="sourcePoint" />
            <Array as="points">
              <mxPoint x="580" y="520" />
            </Array>
            <mxPoint x="580" y="519.5" as="targetPoint" />
          </mxGeometry>
        </mxCell>
        <mxCell id="VUFKNVF6qT9xStpMJ2az-16" style="edgeStyle=orthogonalEdgeStyle;rounded=0;orthogonalLoop=1;jettySize=auto;html=1;shape=flexArrow;strokeWidth=1;fillColor=#B3B3B3;strokeColor=none;fontSize=15;entryX=0.5;entryY=1;entryDx=0;entryDy=0;" parent="1" target="VUFKNVF6qT9xStpMJ2az-14" edge="1">
          <mxGeometry relative="1" as="geometry">
            <mxPoint x="490" y="669.5" as="sourcePoint" />
            <Array as="points">
              <mxPoint x="580" y="670" />
            </Array>
            <mxPoint x="580" y="669.5" as="targetPoint" />
          </mxGeometry>
        </mxCell>
        <mxCell id="VUFKNVF6qT9xStpMJ2az-17" value="新增专家" style="rounded=0;whiteSpace=wrap;html=1;fontSize=15;" parent="1" vertex="1">
          <mxGeometry x="770" y="462.5" width="120" height="60" as="geometry" />
        </mxCell>
        <mxCell id="VUFKNVF6qT9xStpMJ2az-18" value="编辑专家" style="rounded=0;whiteSpace=wrap;html=1;fontSize=15;" parent="1" vertex="1">
          <mxGeometry x="770" y="532.5" width="120" height="60" as="geometry" />
        </mxCell>
        <mxCell id="VUFKNVF6qT9xStpMJ2az-19" value="删除专家" style="rounded=0;whiteSpace=wrap;html=1;fontSize=15;" parent="1" vertex="1">
          <mxGeometry x="770" y="602.5" width="120" height="60" as="geometry" />
        </mxCell>
        <mxCell id="A0hj3vE1pnaa9gVBBFPm-1" value="专家详情" style="rounded=0;whiteSpace=wrap;html=1;fontSize=15;" parent="1" vertex="1">
          <mxGeometry x="770" y="672.5" width="120" height="60" as="geometry" />
        </mxCell>
        <mxCell id="A0hj3vE1pnaa9gVBBFPm-2" style="edgeStyle=orthogonalEdgeStyle;rounded=0;orthogonalLoop=1;jettySize=auto;html=1;shape=flexArrow;strokeWidth=1;fillColor=#B3B3B3;strokeColor=none;fontSize=15;entryX=0;entryY=0.5;entryDx=0;entryDy=0;" parent="1" target="VUFKNVF6qT9xStpMJ2az-17" edge="1">
          <mxGeometry relative="1" as="geometry">
            <mxPoint x="640" y="602.5" as="sourcePoint" />
            <Array as="points">
              <mxPoint x="690" y="603" />
              <mxPoint x="690" y="493" />
            </Array>
            <mxPoint x="680" y="480" as="targetPoint" />
          </mxGeometry>
        </mxCell>
        <mxCell id="A0hj3vE1pnaa9gVBBFPm-3" style="edgeStyle=orthogonalEdgeStyle;rounded=0;orthogonalLoop=1;jettySize=auto;html=1;shape=flexArrow;strokeWidth=1;fillColor=#B3B3B3;strokeColor=none;fontSize=15;entryX=0;entryY=0.5;entryDx=0;entryDy=0;" parent="1" target="VUFKNVF6qT9xStpMJ2az-18" edge="1">
          <mxGeometry relative="1" as="geometry">
            <mxPoint x="640" y="602.5" as="sourcePoint" />
            <Array as="points">
              <mxPoint x="690" y="603" />
              <mxPoint x="690" y="563" />
            </Array>
            <mxPoint x="690" y="550" as="targetPoint" />
          </mxGeometry>
        </mxCell>
        <mxCell id="A0hj3vE1pnaa9gVBBFPm-4" style="edgeStyle=orthogonalEdgeStyle;rounded=0;orthogonalLoop=1;jettySize=auto;html=1;shape=flexArrow;strokeWidth=1;fillColor=#B3B3B3;strokeColor=none;fontSize=15;entryX=0;entryY=0.5;entryDx=0;entryDy=0;" parent="1" target="A0hj3vE1pnaa9gVBBFPm-1" edge="1">
          <mxGeometry relative="1" as="geometry">
            <mxPoint x="640" y="602.5" as="sourcePoint" />
            <Array as="points">
              <mxPoint x="690" y="603" />
              <mxPoint x="690" y="703" />
            </Array>
            <mxPoint x="730" y="602.5" as="targetPoint" />
          </mxGeometry>
        </mxCell>
        <mxCell id="A0hj3vE1pnaa9gVBBFPm-6" style="edgeStyle=orthogonalEdgeStyle;rounded=0;orthogonalLoop=1;jettySize=auto;html=1;shape=flexArrow;strokeWidth=1;fillColor=#B3B3B3;strokeColor=none;fontSize=15;entryX=0;entryY=0.5;entryDx=0;entryDy=0;" parent="1" target="VUFKNVF6qT9xStpMJ2az-19" edge="1">
          <mxGeometry relative="1" as="geometry">
            <mxPoint x="640" y="604.5" as="sourcePoint" />
            <Array as="points">
              <mxPoint x="690" y="605" />
              <mxPoint x="690" y="633" />
            </Array>
            <mxPoint x="770" y="565" as="targetPoint" />
          </mxGeometry>
        </mxCell>
        <mxCell id="A0hj3vE1pnaa9gVBBFPm-7" style="edgeStyle=orthogonalEdgeStyle;rounded=0;orthogonalLoop=1;jettySize=auto;html=1;shape=flexArrow;strokeWidth=1;fillColor=#B3B3B3;strokeColor=none;fontSize=15;exitX=1;exitY=0.5;exitDx=0;exitDy=0;" parent="1" source="VUFKNVF6qT9xStpMJ2az-17" edge="1">
          <mxGeometry relative="1" as="geometry">
            <mxPoint x="1010" y="597" as="sourcePoint" />
            <Array as="points">
              <mxPoint x="960" y="493" />
              <mxPoint x="960" y="597" />
            </Array>
            <mxPoint x="1040" y="597" as="targetPoint" />
          </mxGeometry>
        </mxCell>
        <mxCell id="A0hj3vE1pnaa9gVBBFPm-8" style="edgeStyle=orthogonalEdgeStyle;rounded=0;orthogonalLoop=1;jettySize=auto;html=1;shape=flexArrow;strokeWidth=1;fillColor=#B3B3B3;strokeColor=none;fontSize=15;exitX=1;exitY=0.5;exitDx=0;exitDy=0;" parent="1" source="VUFKNVF6qT9xStpMJ2az-18" edge="1">
          <mxGeometry relative="1" as="geometry">
            <mxPoint x="1010" y="597" as="sourcePoint" />
            <Array as="points">
              <mxPoint x="960" y="563" />
              <mxPoint x="960" y="597" />
            </Array>
            <mxPoint x="1040" y="597" as="targetPoint" />
          </mxGeometry>
        </mxCell>
        <mxCell id="A0hj3vE1pnaa9gVBBFPm-9" style="edgeStyle=orthogonalEdgeStyle;rounded=0;orthogonalLoop=1;jettySize=auto;html=1;shape=flexArrow;strokeWidth=1;fillColor=#B3B3B3;strokeColor=none;fontSize=15;exitX=1;exitY=0.5;exitDx=0;exitDy=0;" parent="1" source="VUFKNVF6qT9xStpMJ2az-19" edge="1">
          <mxGeometry relative="1" as="geometry">
            <mxPoint x="1010" y="597" as="sourcePoint" />
            <Array as="points">
              <mxPoint x="960" y="633" />
              <mxPoint x="960" y="597" />
            </Array>
            <mxPoint x="1040" y="597" as="targetPoint" />
          </mxGeometry>
        </mxCell>
        <mxCell id="A0hj3vE1pnaa9gVBBFPm-10" style="edgeStyle=orthogonalEdgeStyle;rounded=0;orthogonalLoop=1;jettySize=auto;html=1;shape=flexArrow;strokeWidth=1;fillColor=#B3B3B3;strokeColor=none;fontSize=15;exitX=1;exitY=0.5;exitDx=0;exitDy=0;" parent="1" source="A0hj3vE1pnaa9gVBBFPm-1" edge="1">
          <mxGeometry relative="1" as="geometry">
            <mxPoint x="1010" y="597" as="sourcePoint" />
            <Array as="points">
              <mxPoint x="960" y="703" />
              <mxPoint x="960" y="597" />
            </Array>
            <mxPoint x="1040" y="597" as="targetPoint" />
          </mxGeometry>
        </mxCell>
        <mxCell id="A0hj3vE1pnaa9gVBBFPm-13" value="①" style="text;html=1;strokeColor=none;fillColor=none;align=center;verticalAlign=middle;whiteSpace=wrap;rounded=0;strokeWidth=1;fontSize=17;" parent="1" vertex="1">
          <mxGeometry x="400" y="460" width="60" height="30" as="geometry" />
        </mxCell>
        <mxCell id="A0hj3vE1pnaa9gVBBFPm-18" value="②" style="text;html=1;strokeColor=none;fillColor=none;align=center;verticalAlign=middle;whiteSpace=wrap;rounded=0;strokeWidth=1;fontSize=17;" parent="1" vertex="1">
          <mxGeometry x="400" y="700" width="60" height="30" as="geometry" />
        </mxCell>
        <mxCell id="A0hj3vE1pnaa9gVBBFPm-19" value="③" style="text;html=1;strokeColor=none;fillColor=none;align=center;verticalAlign=middle;whiteSpace=wrap;rounded=0;strokeWidth=1;fontSize=17;" parent="1" vertex="1">
          <mxGeometry x="500" y="537.5" width="60" height="30" as="geometry" />
        </mxCell>
        <mxCell id="A0hj3vE1pnaa9gVBBFPm-20" value="④" style="text;html=1;strokeColor=none;fillColor=none;align=center;verticalAlign=middle;whiteSpace=wrap;rounded=0;strokeWidth=1;fontSize=17;" parent="1" vertex="1">
          <mxGeometry x="730" y="450" width="60" height="30" as="geometry" />
        </mxCell>
        <mxCell id="A0hj3vE1pnaa9gVBBFPm-25" value="⑤" style="text;html=1;strokeColor=none;fillColor=none;align=center;verticalAlign=middle;whiteSpace=wrap;rounded=0;strokeWidth=1;fontSize=17;" parent="1" vertex="1">
          <mxGeometry x="730" y="520" width="60" height="30" as="geometry" />
        </mxCell>
        <mxCell id="A0hj3vE1pnaa9gVBBFPm-26" value="⑥" style="text;html=1;strokeColor=none;fillColor=none;align=center;verticalAlign=middle;whiteSpace=wrap;rounded=0;strokeWidth=1;fontSize=17;" parent="1" vertex="1">
          <mxGeometry x="730" y="592.5" width="60" height="30" as="geometry" />
        </mxCell>
        <mxCell id="A0hj3vE1pnaa9gVBBFPm-27" value="⑦" style="text;html=1;strokeColor=none;fillColor=none;align=center;verticalAlign=middle;whiteSpace=wrap;rounded=0;strokeWidth=1;fontSize=17;" parent="1" vertex="1">
          <mxGeometry x="730" y="662.5" width="60" height="30" as="geometry" />
        </mxCell>
      </root>
    </mxGraphModel>
  </diagram>
  <diagram id="25sPhLdG1SF6kFuRLOyn" name="标准库">
    <mxGraphModel dx="1434" dy="746" grid="1" gridSize="10" guides="1" tooltips="1" connect="1" arrows="1" fold="1" page="1" pageScale="1" pageWidth="827" pageHeight="1169" math="0" shadow="0">
      <root>
        <mxCell id="0" />
        <mxCell id="1" parent="0" />
        <mxCell id="DY-lnvWDFRvRC99X2RpU-1" value="输入关键字" style="rounded=0;whiteSpace=wrap;html=1;fontSize=15;" parent="1" vertex="1">
          <mxGeometry x="340" y="280" width="120" height="60" as="geometry" />
        </mxCell>
        <mxCell id="DY-lnvWDFRvRC99X2RpU-2" style="edgeStyle=orthogonalEdgeStyle;rounded=0;orthogonalLoop=1;jettySize=auto;html=1;shape=flexArrow;strokeWidth=1;fillColor=#B3B3B3;strokeColor=none;fontSize=15;" parent="1" edge="1">
          <mxGeometry relative="1" as="geometry">
            <mxPoint x="270" y="390" as="sourcePoint" />
            <Array as="points">
              <mxPoint x="450" y="309.5" />
              <mxPoint x="450" y="309.5" />
            </Array>
            <mxPoint x="340" y="309.5" as="targetPoint" />
          </mxGeometry>
        </mxCell>
        <mxCell id="DY-lnvWDFRvRC99X2RpU-3" value="" style="ellipse;fillColor=strokeColor;html=1;fontSize=15;" parent="1" vertex="1">
          <mxGeometry x="180" y="375" width="25" height="25" as="geometry" />
        </mxCell>
        <mxCell id="DY-lnvWDFRvRC99X2RpU-4" value="" style="ellipse;fillColor=strokeColor;html=1;fontSize=15;" parent="1" vertex="1">
          <mxGeometry x="1010" y="375" width="25" height="25" as="geometry" />
        </mxCell>
        <mxCell id="DY-lnvWDFRvRC99X2RpU-5" value="标准分级条件筛选" style="rounded=0;whiteSpace=wrap;html=1;fontSize=15;" parent="1" vertex="1">
          <mxGeometry x="340" y="430" width="120" height="60" as="geometry" />
        </mxCell>
        <mxCell id="DY-lnvWDFRvRC99X2RpU-6" style="edgeStyle=orthogonalEdgeStyle;rounded=0;orthogonalLoop=1;jettySize=auto;html=1;shape=flexArrow;strokeWidth=1;fillColor=#B3B3B3;strokeColor=none;fontSize=15;exitX=1;exitY=0.5;exitDx=0;exitDy=0;" parent="1" source="DY-lnvWDFRvRC99X2RpU-3" edge="1">
          <mxGeometry relative="1" as="geometry">
            <mxPoint x="270" y="390" as="sourcePoint" />
            <Array as="points">
              <mxPoint x="270" y="388" />
              <mxPoint x="270" y="460" />
            </Array>
            <mxPoint x="340" y="460" as="targetPoint" />
          </mxGeometry>
        </mxCell>
        <mxCell id="DY-lnvWDFRvRC99X2RpU-7" style="edgeStyle=orthogonalEdgeStyle;rounded=0;orthogonalLoop=1;jettySize=auto;html=1;shape=flexArrow;strokeWidth=1;fillColor=#B3B3B3;strokeColor=none;fontSize=15;" parent="1" edge="1">
          <mxGeometry relative="1" as="geometry">
            <mxPoint x="370" y="340" as="sourcePoint" />
            <Array as="points">
              <mxPoint x="560" y="400" />
              <mxPoint x="560" y="400" />
            </Array>
            <mxPoint x="370" y="430" as="targetPoint" />
          </mxGeometry>
        </mxCell>
        <mxCell id="DY-lnvWDFRvRC99X2RpU-8" style="edgeStyle=orthogonalEdgeStyle;rounded=0;orthogonalLoop=1;jettySize=auto;html=1;shape=flexArrow;strokeWidth=1;fillColor=#B3B3B3;strokeColor=none;fontSize=15;" parent="1" edge="1">
          <mxGeometry relative="1" as="geometry">
            <mxPoint x="420" y="430" as="sourcePoint" />
            <Array as="points">
              <mxPoint x="610" y="400" />
              <mxPoint x="610" y="400" />
            </Array>
            <mxPoint x="420" y="340" as="targetPoint" />
          </mxGeometry>
        </mxCell>
        <mxCell id="DY-lnvWDFRvRC99X2RpU-9" value="标准清单" style="rounded=0;whiteSpace=wrap;html=1;fontSize=15;" parent="1" vertex="1">
          <mxGeometry x="490" y="357.5" width="120" height="60" as="geometry" />
        </mxCell>
        <mxCell id="DY-lnvWDFRvRC99X2RpU-10" style="edgeStyle=orthogonalEdgeStyle;rounded=0;orthogonalLoop=1;jettySize=auto;html=1;shape=flexArrow;strokeWidth=1;fillColor=#B3B3B3;strokeColor=none;fontSize=15;entryX=0.5;entryY=0;entryDx=0;entryDy=0;" parent="1" target="DY-lnvWDFRvRC99X2RpU-9" edge="1">
          <mxGeometry relative="1" as="geometry">
            <mxPoint x="460" y="309.5" as="sourcePoint" />
            <Array as="points">
              <mxPoint x="550" y="310" />
            </Array>
            <mxPoint x="550" y="309.5" as="targetPoint" />
          </mxGeometry>
        </mxCell>
        <mxCell id="DY-lnvWDFRvRC99X2RpU-11" style="edgeStyle=orthogonalEdgeStyle;rounded=0;orthogonalLoop=1;jettySize=auto;html=1;shape=flexArrow;strokeWidth=1;fillColor=#B3B3B3;strokeColor=none;fontSize=15;entryX=0.5;entryY=1;entryDx=0;entryDy=0;" parent="1" target="DY-lnvWDFRvRC99X2RpU-9" edge="1">
          <mxGeometry relative="1" as="geometry">
            <mxPoint x="460" y="459.5" as="sourcePoint" />
            <Array as="points">
              <mxPoint x="550" y="460" />
            </Array>
            <mxPoint x="550" y="459.5" as="targetPoint" />
          </mxGeometry>
        </mxCell>
        <mxCell id="DY-lnvWDFRvRC99X2RpU-12" value="新增标准" style="rounded=0;whiteSpace=wrap;html=1;fontSize=15;" parent="1" vertex="1">
          <mxGeometry x="740" y="252.5" width="120" height="60" as="geometry" />
        </mxCell>
        <mxCell id="DY-lnvWDFRvRC99X2RpU-13" value="编辑标准" style="rounded=0;whiteSpace=wrap;html=1;fontSize=15;" parent="1" vertex="1">
          <mxGeometry x="740" y="322.5" width="120" height="60" as="geometry" />
        </mxCell>
        <mxCell id="DY-lnvWDFRvRC99X2RpU-14" value="删除标准" style="rounded=0;whiteSpace=wrap;html=1;fontSize=15;" parent="1" vertex="1">
          <mxGeometry x="740" y="392.5" width="120" height="60" as="geometry" />
        </mxCell>
        <mxCell id="DY-lnvWDFRvRC99X2RpU-15" value="标准详情" style="rounded=0;whiteSpace=wrap;html=1;fontSize=15;" parent="1" vertex="1">
          <mxGeometry x="740" y="462.5" width="120" height="60" as="geometry" />
        </mxCell>
        <mxCell id="DY-lnvWDFRvRC99X2RpU-16" style="edgeStyle=orthogonalEdgeStyle;rounded=0;orthogonalLoop=1;jettySize=auto;html=1;shape=flexArrow;strokeWidth=1;fillColor=#B3B3B3;strokeColor=none;fontSize=15;entryX=0;entryY=0.5;entryDx=0;entryDy=0;" parent="1" target="DY-lnvWDFRvRC99X2RpU-12" edge="1">
          <mxGeometry relative="1" as="geometry">
            <mxPoint x="610" y="392.5" as="sourcePoint" />
            <Array as="points">
              <mxPoint x="660" y="393" />
              <mxPoint x="660" y="283" />
            </Array>
            <mxPoint x="650" y="270" as="targetPoint" />
          </mxGeometry>
        </mxCell>
        <mxCell id="DY-lnvWDFRvRC99X2RpU-17" style="edgeStyle=orthogonalEdgeStyle;rounded=0;orthogonalLoop=1;jettySize=auto;html=1;shape=flexArrow;strokeWidth=1;fillColor=#B3B3B3;strokeColor=none;fontSize=15;entryX=0;entryY=0.5;entryDx=0;entryDy=0;" parent="1" target="DY-lnvWDFRvRC99X2RpU-13" edge="1">
          <mxGeometry relative="1" as="geometry">
            <mxPoint x="610" y="392.5" as="sourcePoint" />
            <Array as="points">
              <mxPoint x="660" y="393" />
              <mxPoint x="660" y="353" />
            </Array>
            <mxPoint x="660" y="340" as="targetPoint" />
          </mxGeometry>
        </mxCell>
        <mxCell id="DY-lnvWDFRvRC99X2RpU-18" style="edgeStyle=orthogonalEdgeStyle;rounded=0;orthogonalLoop=1;jettySize=auto;html=1;shape=flexArrow;strokeWidth=1;fillColor=#B3B3B3;strokeColor=none;fontSize=15;entryX=0;entryY=0.5;entryDx=0;entryDy=0;" parent="1" target="DY-lnvWDFRvRC99X2RpU-15" edge="1">
          <mxGeometry relative="1" as="geometry">
            <mxPoint x="610" y="392.5" as="sourcePoint" />
            <Array as="points">
              <mxPoint x="660" y="393" />
              <mxPoint x="660" y="493" />
            </Array>
            <mxPoint x="700" y="392.5" as="targetPoint" />
          </mxGeometry>
        </mxCell>
        <mxCell id="DY-lnvWDFRvRC99X2RpU-19" style="edgeStyle=orthogonalEdgeStyle;rounded=0;orthogonalLoop=1;jettySize=auto;html=1;shape=flexArrow;strokeWidth=1;fillColor=#B3B3B3;strokeColor=none;fontSize=15;entryX=0;entryY=0.5;entryDx=0;entryDy=0;" parent="1" target="DY-lnvWDFRvRC99X2RpU-14" edge="1">
          <mxGeometry relative="1" as="geometry">
            <mxPoint x="610" y="394.5" as="sourcePoint" />
            <Array as="points">
              <mxPoint x="660" y="395" />
              <mxPoint x="660" y="423" />
            </Array>
            <mxPoint x="740" y="355" as="targetPoint" />
          </mxGeometry>
        </mxCell>
        <mxCell id="DY-lnvWDFRvRC99X2RpU-20" style="edgeStyle=orthogonalEdgeStyle;rounded=0;orthogonalLoop=1;jettySize=auto;html=1;shape=flexArrow;strokeWidth=1;fillColor=#B3B3B3;strokeColor=none;fontSize=15;exitX=1;exitY=0.5;exitDx=0;exitDy=0;" parent="1" source="DY-lnvWDFRvRC99X2RpU-12" edge="1">
          <mxGeometry relative="1" as="geometry">
            <mxPoint x="980" y="387" as="sourcePoint" />
            <Array as="points">
              <mxPoint x="930" y="283" />
              <mxPoint x="930" y="387" />
            </Array>
            <mxPoint x="1010" y="387" as="targetPoint" />
          </mxGeometry>
        </mxCell>
        <mxCell id="DY-lnvWDFRvRC99X2RpU-21" style="edgeStyle=orthogonalEdgeStyle;rounded=0;orthogonalLoop=1;jettySize=auto;html=1;shape=flexArrow;strokeWidth=1;fillColor=#B3B3B3;strokeColor=none;fontSize=15;exitX=1;exitY=0.5;exitDx=0;exitDy=0;" parent="1" source="DY-lnvWDFRvRC99X2RpU-13" edge="1">
          <mxGeometry relative="1" as="geometry">
            <mxPoint x="980" y="387" as="sourcePoint" />
            <Array as="points">
              <mxPoint x="930" y="353" />
              <mxPoint x="930" y="387" />
            </Array>
            <mxPoint x="1010" y="387" as="targetPoint" />
          </mxGeometry>
        </mxCell>
        <mxCell id="DY-lnvWDFRvRC99X2RpU-22" style="edgeStyle=orthogonalEdgeStyle;rounded=0;orthogonalLoop=1;jettySize=auto;html=1;shape=flexArrow;strokeWidth=1;fillColor=#B3B3B3;strokeColor=none;fontSize=15;exitX=1;exitY=0.5;exitDx=0;exitDy=0;" parent="1" source="DY-lnvWDFRvRC99X2RpU-14" edge="1">
          <mxGeometry relative="1" as="geometry">
            <mxPoint x="980" y="387" as="sourcePoint" />
            <Array as="points">
              <mxPoint x="930" y="423" />
              <mxPoint x="930" y="387" />
            </Array>
            <mxPoint x="1010" y="387" as="targetPoint" />
          </mxGeometry>
        </mxCell>
        <mxCell id="DY-lnvWDFRvRC99X2RpU-23" style="edgeStyle=orthogonalEdgeStyle;rounded=0;orthogonalLoop=1;jettySize=auto;html=1;shape=flexArrow;strokeWidth=1;fillColor=#B3B3B3;strokeColor=none;fontSize=15;exitX=1;exitY=0.5;exitDx=0;exitDy=0;" parent="1" source="DY-lnvWDFRvRC99X2RpU-15" edge="1">
          <mxGeometry relative="1" as="geometry">
            <mxPoint x="980" y="387" as="sourcePoint" />
            <Array as="points">
              <mxPoint x="930" y="493" />
              <mxPoint x="930" y="387" />
            </Array>
            <mxPoint x="1010" y="387" as="targetPoint" />
          </mxGeometry>
        </mxCell>
        <mxCell id="DY-lnvWDFRvRC99X2RpU-24" value="①" style="text;html=1;strokeColor=none;fillColor=none;align=center;verticalAlign=middle;whiteSpace=wrap;rounded=0;strokeWidth=1;fontSize=17;" parent="1" vertex="1">
          <mxGeometry x="370" y="250" width="60" height="30" as="geometry" />
        </mxCell>
        <mxCell id="DY-lnvWDFRvRC99X2RpU-25" value="②" style="text;html=1;strokeColor=none;fillColor=none;align=center;verticalAlign=middle;whiteSpace=wrap;rounded=0;strokeWidth=1;fontSize=17;" parent="1" vertex="1">
          <mxGeometry x="370" y="490" width="60" height="30" as="geometry" />
        </mxCell>
        <mxCell id="DY-lnvWDFRvRC99X2RpU-26" value="③" style="text;html=1;strokeColor=none;fillColor=none;align=center;verticalAlign=middle;whiteSpace=wrap;rounded=0;strokeWidth=1;fontSize=17;" parent="1" vertex="1">
          <mxGeometry x="470" y="327.5" width="60" height="30" as="geometry" />
        </mxCell>
        <mxCell id="DY-lnvWDFRvRC99X2RpU-27" value="④" style="text;html=1;strokeColor=none;fillColor=none;align=center;verticalAlign=middle;whiteSpace=wrap;rounded=0;strokeWidth=1;fontSize=17;" parent="1" vertex="1">
          <mxGeometry x="700" y="240" width="60" height="30" as="geometry" />
        </mxCell>
        <mxCell id="DY-lnvWDFRvRC99X2RpU-28" value="⑤" style="text;html=1;strokeColor=none;fillColor=none;align=center;verticalAlign=middle;whiteSpace=wrap;rounded=0;strokeWidth=1;fontSize=17;" parent="1" vertex="1">
          <mxGeometry x="700" y="310" width="60" height="30" as="geometry" />
        </mxCell>
        <mxCell id="DY-lnvWDFRvRC99X2RpU-29" value="⑥" style="text;html=1;strokeColor=none;fillColor=none;align=center;verticalAlign=middle;whiteSpace=wrap;rounded=0;strokeWidth=1;fontSize=17;" parent="1" vertex="1">
          <mxGeometry x="700" y="382.5" width="60" height="30" as="geometry" />
        </mxCell>
        <mxCell id="DY-lnvWDFRvRC99X2RpU-30" value="⑦" style="text;html=1;strokeColor=none;fillColor=none;align=center;verticalAlign=middle;whiteSpace=wrap;rounded=0;strokeWidth=1;fontSize=17;" parent="1" vertex="1">
          <mxGeometry x="700" y="452.5" width="60" height="30" as="geometry" />
        </mxCell>
      </root>
    </mxGraphModel>
  </diagram>
  <diagram id="2PYLdt8W8aCWox60gIVg" name="设备共享">
    <mxGraphModel dx="2261" dy="746" grid="1" gridSize="10" guides="1" tooltips="1" connect="1" arrows="1" fold="1" page="1" pageScale="1" pageWidth="827" pageHeight="1169" math="0" shadow="0">
      <root>
        <mxCell id="0" />
        <mxCell id="1" parent="0" />
        <mxCell id="04heesSiGPwsJcjiWQiE-3" value="提交" style="rounded=0;whiteSpace=wrap;html=1;fontSize=15;" parent="1" vertex="1">
          <mxGeometry x="354" y="372.5" width="120" height="60" as="geometry" />
        </mxCell>
        <mxCell id="04heesSiGPwsJcjiWQiE-4" value="&lt;font style=&quot;font-size: 15px;&quot;&gt;审批&lt;/font&gt;" style="rhombus;whiteSpace=wrap;html=1;" parent="1" vertex="1">
          <mxGeometry x="560" y="363" width="130" height="80" as="geometry" />
        </mxCell>
        <mxCell id="04heesSiGPwsJcjiWQiE-5" value="设备信息清单" style="rounded=0;whiteSpace=wrap;html=1;fontSize=15;" parent="1" vertex="1">
          <mxGeometry x="780" y="373" width="120" height="60" as="geometry" />
        </mxCell>
        <mxCell id="L2iUFBZVkVjURH34k3ce-1" value="编辑设备信息" style="rounded=0;whiteSpace=wrap;html=1;fontSize=15;" parent="1" vertex="1">
          <mxGeometry x="354" y="270" width="120" height="60" as="geometry" />
        </mxCell>
        <mxCell id="L2iUFBZVkVjURH34k3ce-2" value="删除设备信息" style="rounded=0;whiteSpace=wrap;html=1;fontSize=15;" parent="1" vertex="1">
          <mxGeometry x="1020" y="302.75" width="120" height="60" as="geometry" />
        </mxCell>
        <mxCell id="L2iUFBZVkVjURH34k3ce-3" value="设备信息详情" style="rounded=0;whiteSpace=wrap;html=1;fontSize=15;" parent="1" vertex="1">
          <mxGeometry x="1020" y="372.25" width="120" height="60" as="geometry" />
        </mxCell>
        <mxCell id="L2iUFBZVkVjURH34k3ce-4" value="设备上架/下架" style="rounded=0;whiteSpace=wrap;html=1;fontSize=15;" parent="1" vertex="1">
          <mxGeometry x="1020" y="442.25" width="120" height="60" as="geometry" />
        </mxCell>
        <mxCell id="L2iUFBZVkVjURH34k3ce-5" style="edgeStyle=orthogonalEdgeStyle;rounded=0;orthogonalLoop=1;jettySize=auto;html=1;shape=flexArrow;strokeWidth=1;fillColor=#B3B3B3;strokeColor=none;fontSize=15;" parent="1" source="04heesSiGPwsJcjiWQiE-2" edge="1">
          <mxGeometry relative="1" as="geometry">
            <mxPoint x="65" y="402.5" as="sourcePoint" />
            <Array as="points">
              <mxPoint x="265" y="402.5" />
              <mxPoint x="265" y="402.5" />
            </Array>
            <mxPoint x="155" y="402.5" as="targetPoint" />
          </mxGeometry>
        </mxCell>
        <mxCell id="L2iUFBZVkVjURH34k3ce-6" value="" style="edgeStyle=orthogonalEdgeStyle;rounded=0;orthogonalLoop=1;jettySize=auto;html=1;shape=flexArrow;strokeWidth=1;fillColor=#B3B3B3;strokeColor=none;fontSize=15;" parent="1" target="04heesSiGPwsJcjiWQiE-2" edge="1">
          <mxGeometry relative="1" as="geometry">
            <mxPoint x="65" y="402.5" as="sourcePoint" />
            <Array as="points" />
            <mxPoint x="155" y="402.5" as="targetPoint" />
          </mxGeometry>
        </mxCell>
        <mxCell id="04heesSiGPwsJcjiWQiE-2" value="增加设备信息" style="rounded=0;whiteSpace=wrap;html=1;fontSize=15;" parent="1" vertex="1">
          <mxGeometry x="151" y="373" width="120" height="60" as="geometry" />
        </mxCell>
        <mxCell id="L2iUFBZVkVjURH34k3ce-7" value="" style="edgeStyle=orthogonalEdgeStyle;rounded=0;orthogonalLoop=1;jettySize=auto;html=1;shape=flexArrow;strokeWidth=1;fillColor=#B3B3B3;strokeColor=none;fontSize=15;" parent="1" edge="1">
          <mxGeometry relative="1" as="geometry">
            <mxPoint x="270" y="402.5" as="sourcePoint" />
            <Array as="points" />
            <mxPoint x="355" y="403" as="targetPoint" />
          </mxGeometry>
        </mxCell>
        <mxCell id="L2iUFBZVkVjURH34k3ce-8" value="" style="edgeStyle=orthogonalEdgeStyle;rounded=0;orthogonalLoop=1;jettySize=auto;html=1;shape=flexArrow;strokeWidth=1;fillColor=#B3B3B3;strokeColor=none;fontSize=15;" parent="1" edge="1">
          <mxGeometry relative="1" as="geometry">
            <mxPoint x="474" y="402.5" as="sourcePoint" />
            <Array as="points" />
            <mxPoint x="559" y="403" as="targetPoint" />
          </mxGeometry>
        </mxCell>
        <mxCell id="L2iUFBZVkVjURH34k3ce-9" style="edgeStyle=orthogonalEdgeStyle;rounded=0;orthogonalLoop=1;jettySize=auto;html=1;shape=flexArrow;strokeWidth=1;fillColor=#B3B3B3;strokeColor=none;fontSize=15;exitX=0.5;exitY=0;exitDx=0;exitDy=0;entryX=0.5;entryY=0;entryDx=0;entryDy=0;" parent="1" source="04heesSiGPwsJcjiWQiE-4" target="L2iUFBZVkVjURH34k3ce-1" edge="1">
          <mxGeometry relative="1" as="geometry">
            <mxPoint x="490" y="310" as="sourcePoint" />
            <Array as="points">
              <mxPoint x="625" y="220" />
              <mxPoint x="414" y="220" />
            </Array>
            <mxPoint x="350" y="130" as="targetPoint" />
          </mxGeometry>
        </mxCell>
        <mxCell id="L2iUFBZVkVjURH34k3ce-11" style="edgeStyle=orthogonalEdgeStyle;rounded=0;orthogonalLoop=1;jettySize=auto;html=1;shape=flexArrow;strokeWidth=1;fillColor=#B3B3B3;strokeColor=none;fontSize=15;" parent="1" target="04heesSiGPwsJcjiWQiE-3" edge="1">
          <mxGeometry relative="1" as="geometry">
            <mxPoint x="414" y="330" as="sourcePoint" />
            <Array as="points">
              <mxPoint x="414" y="340" />
              <mxPoint x="414" y="340" />
            </Array>
            <mxPoint x="457" y="380" as="targetPoint" />
          </mxGeometry>
        </mxCell>
        <mxCell id="L2iUFBZVkVjURH34k3ce-12" value="" style="edgeStyle=orthogonalEdgeStyle;rounded=0;orthogonalLoop=1;jettySize=auto;html=1;shape=flexArrow;strokeWidth=1;fillColor=#B3B3B3;strokeColor=none;fontSize=15;entryX=0;entryY=0.5;entryDx=0;entryDy=0;exitX=1;exitY=0.5;exitDx=0;exitDy=0;" parent="1" source="04heesSiGPwsJcjiWQiE-4" target="04heesSiGPwsJcjiWQiE-5" edge="1">
          <mxGeometry relative="1" as="geometry">
            <mxPoint x="660" y="610" as="sourcePoint" />
            <Array as="points" />
            <mxPoint x="775" y="402.5" as="targetPoint" />
          </mxGeometry>
        </mxCell>
        <mxCell id="L2iUFBZVkVjURH34k3ce-14" style="edgeStyle=orthogonalEdgeStyle;rounded=0;orthogonalLoop=1;jettySize=auto;html=1;shape=flexArrow;strokeWidth=1;fillColor=#B3B3B3;strokeColor=none;fontSize=15;entryX=0;entryY=0.5;entryDx=0;entryDy=0;" parent="1" target="L2iUFBZVkVjURH34k3ce-2" edge="1">
          <mxGeometry relative="1" as="geometry">
            <mxPoint x="900" y="402" as="sourcePoint" />
            <Array as="points">
              <mxPoint x="950" y="402" />
              <mxPoint x="950" y="333" />
            </Array>
            <mxPoint x="990" y="402" as="targetPoint" />
          </mxGeometry>
        </mxCell>
        <mxCell id="L2iUFBZVkVjURH34k3ce-15" style="edgeStyle=orthogonalEdgeStyle;rounded=0;orthogonalLoop=1;jettySize=auto;html=1;shape=flexArrow;strokeWidth=1;fillColor=#B3B3B3;strokeColor=none;fontSize=15;entryX=0;entryY=0.5;entryDx=0;entryDy=0;" parent="1" target="L2iUFBZVkVjURH34k3ce-3" edge="1">
          <mxGeometry relative="1" as="geometry">
            <mxPoint x="900" y="402" as="sourcePoint" />
            <Array as="points" />
            <mxPoint x="990" y="402" as="targetPoint" />
          </mxGeometry>
        </mxCell>
        <mxCell id="L2iUFBZVkVjURH34k3ce-16" style="edgeStyle=orthogonalEdgeStyle;rounded=0;orthogonalLoop=1;jettySize=auto;html=1;shape=flexArrow;strokeWidth=1;fillColor=#B3B3B3;strokeColor=none;fontSize=15;" parent="1" edge="1">
          <mxGeometry relative="1" as="geometry">
            <mxPoint x="900" y="402" as="sourcePoint" />
            <Array as="points">
              <mxPoint x="950" y="402" />
              <mxPoint x="950" y="470" />
            </Array>
            <mxPoint x="1019" y="470" as="targetPoint" />
          </mxGeometry>
        </mxCell>
        <mxCell id="L2iUFBZVkVjURH34k3ce-20" value="" style="edgeStyle=orthogonalEdgeStyle;rounded=0;orthogonalLoop=1;jettySize=auto;html=1;shape=flexArrow;strokeWidth=1;fillColor=#B3B3B3;strokeColor=none;fontSize=15;" parent="1" edge="1">
          <mxGeometry relative="1" as="geometry">
            <mxPoint x="1140" y="402" as="sourcePoint" />
            <Array as="points" />
            <mxPoint x="1290" y="403" as="targetPoint" />
          </mxGeometry>
        </mxCell>
        <mxCell id="5_qZvwh1Y45G8j97Mo1F-13" value="" style="ellipse;fillColor=strokeColor;html=1;fontSize=15;" parent="1" vertex="1">
          <mxGeometry x="1290" y="390.5" width="25" height="25" as="geometry" />
        </mxCell>
        <mxCell id="L2iUFBZVkVjURH34k3ce-22" style="edgeStyle=orthogonalEdgeStyle;rounded=0;orthogonalLoop=1;jettySize=auto;html=1;shape=flexArrow;strokeWidth=1;fillColor=#B3B3B3;strokeColor=none;fontSize=15;" parent="1" edge="1">
          <mxGeometry relative="1" as="geometry">
            <mxPoint x="1141" y="332.25" as="sourcePoint" />
            <Array as="points">
              <mxPoint x="1210" y="332" />
              <mxPoint x="1210" y="403" />
            </Array>
            <mxPoint x="1290" y="403" as="targetPoint" />
          </mxGeometry>
        </mxCell>
        <mxCell id="QpF25xyTxtuWE1Jui1C_-1" style="edgeStyle=orthogonalEdgeStyle;rounded=0;orthogonalLoop=1;jettySize=auto;html=1;shape=flexArrow;strokeWidth=1;fillColor=#B3B3B3;strokeColor=none;fontSize=15;" parent="1" edge="1">
          <mxGeometry relative="1" as="geometry">
            <mxPoint x="1140" y="471.75" as="sourcePoint" />
            <Array as="points">
              <mxPoint x="1210" y="472" />
              <mxPoint x="1210" y="403" />
            </Array>
            <mxPoint x="1290" y="403" as="targetPoint" />
          </mxGeometry>
        </mxCell>
        <mxCell id="gZfsFL1EE1LqqEJU7Llh-1" value="通过" style="text;html=1;strokeColor=none;fillColor=none;align=center;verticalAlign=middle;whiteSpace=wrap;rounded=0;strokeWidth=1;fontSize=17;" parent="1" vertex="1">
          <mxGeometry x="700" y="372.25" width="60" height="30" as="geometry" />
        </mxCell>
        <mxCell id="gZfsFL1EE1LqqEJU7Llh-2" value="驳回" style="text;html=1;strokeColor=none;fillColor=none;align=center;verticalAlign=middle;whiteSpace=wrap;rounded=0;strokeWidth=1;fontSize=17;" parent="1" vertex="1">
          <mxGeometry x="570" y="285" width="60" height="30" as="geometry" />
        </mxCell>
        <mxCell id="SNWZZfa7yrHxiK61V-tL-5" value="⑤" style="text;html=1;strokeColor=none;fillColor=none;align=center;verticalAlign=middle;whiteSpace=wrap;rounded=0;strokeWidth=1;fontSize=17;" parent="1" vertex="1">
          <mxGeometry x="330" y="342.25" width="60" height="30" as="geometry" />
        </mxCell>
        <mxCell id="SNWZZfa7yrHxiK61V-tL-6" value="⑥" style="text;html=1;strokeColor=none;fillColor=none;align=center;verticalAlign=middle;whiteSpace=wrap;rounded=0;strokeWidth=1;fontSize=17;" parent="1" vertex="1">
          <mxGeometry x="540" y="355" width="60" height="30" as="geometry" />
        </mxCell>
        <mxCell id="SNWZZfa7yrHxiK61V-tL-7" value="⑦" style="text;html=1;strokeColor=none;fillColor=none;align=center;verticalAlign=middle;whiteSpace=wrap;rounded=0;strokeWidth=1;fontSize=17;" parent="1" vertex="1">
          <mxGeometry x="330" y="240" width="60" height="30" as="geometry" />
        </mxCell>
        <mxCell id="SNWZZfa7yrHxiK61V-tL-8" value="⑧" style="text;html=1;strokeColor=none;fillColor=none;align=center;verticalAlign=middle;whiteSpace=wrap;rounded=0;strokeWidth=1;fontSize=17;" parent="1" vertex="1">
          <mxGeometry x="980" y="290" width="60" height="30" as="geometry" />
        </mxCell>
        <mxCell id="v_zlEybOoDQ0xR3DjmyD-1" value="输入关键字" style="rounded=0;whiteSpace=wrap;html=1;fontSize=15;" parent="1" vertex="1">
          <mxGeometry x="-205" y="290" width="120" height="60" as="geometry" />
        </mxCell>
        <mxCell id="v_zlEybOoDQ0xR3DjmyD-3" value="" style="ellipse;fillColor=strokeColor;html=1;fontSize=15;" parent="1" vertex="1">
          <mxGeometry x="-365" y="385" width="25" height="25" as="geometry" />
        </mxCell>
        <mxCell id="v_zlEybOoDQ0xR3DjmyD-4" value="设备状态条件筛选" style="rounded=0;whiteSpace=wrap;html=1;fontSize=15;" parent="1" vertex="1">
          <mxGeometry x="-205" y="440" width="120" height="60" as="geometry" />
        </mxCell>
        <mxCell id="v_zlEybOoDQ0xR3DjmyD-5" style="edgeStyle=orthogonalEdgeStyle;rounded=0;orthogonalLoop=1;jettySize=auto;html=1;shape=flexArrow;strokeWidth=1;fillColor=#B3B3B3;strokeColor=none;fontSize=15;exitX=1;exitY=0.5;exitDx=0;exitDy=0;" parent="1" source="v_zlEybOoDQ0xR3DjmyD-3" edge="1">
          <mxGeometry relative="1" as="geometry">
            <mxPoint x="-275" y="400" as="sourcePoint" />
            <Array as="points">
              <mxPoint x="-270" y="398" />
              <mxPoint x="-270" y="470" />
            </Array>
            <mxPoint x="-205" y="470" as="targetPoint" />
          </mxGeometry>
        </mxCell>
        <mxCell id="v_zlEybOoDQ0xR3DjmyD-6" style="edgeStyle=orthogonalEdgeStyle;rounded=0;orthogonalLoop=1;jettySize=auto;html=1;shape=flexArrow;strokeWidth=1;fillColor=#B3B3B3;strokeColor=none;fontSize=15;" parent="1" edge="1">
          <mxGeometry relative="1" as="geometry">
            <mxPoint x="-175" y="350" as="sourcePoint" />
            <Array as="points">
              <mxPoint x="15" y="410" />
              <mxPoint x="15" y="410" />
            </Array>
            <mxPoint x="-175" y="440" as="targetPoint" />
          </mxGeometry>
        </mxCell>
        <mxCell id="v_zlEybOoDQ0xR3DjmyD-7" style="edgeStyle=orthogonalEdgeStyle;rounded=0;orthogonalLoop=1;jettySize=auto;html=1;shape=flexArrow;strokeWidth=1;fillColor=#B3B3B3;strokeColor=none;fontSize=15;" parent="1" edge="1">
          <mxGeometry relative="1" as="geometry">
            <mxPoint x="-125" y="440" as="sourcePoint" />
            <Array as="points">
              <mxPoint x="65" y="410" />
              <mxPoint x="65" y="410" />
            </Array>
            <mxPoint x="-125" y="350" as="targetPoint" />
          </mxGeometry>
        </mxCell>
        <mxCell id="v_zlEybOoDQ0xR3DjmyD-8" value="设备信息清单" style="rounded=0;whiteSpace=wrap;html=1;fontSize=15;" parent="1" vertex="1">
          <mxGeometry x="-55" y="372.25" width="120" height="60" as="geometry" />
        </mxCell>
        <mxCell id="v_zlEybOoDQ0xR3DjmyD-9" style="edgeStyle=orthogonalEdgeStyle;rounded=0;orthogonalLoop=1;jettySize=auto;html=1;shape=flexArrow;strokeWidth=1;fillColor=#B3B3B3;strokeColor=none;fontSize=15;entryX=0.5;entryY=0;entryDx=0;entryDy=0;" parent="1" target="v_zlEybOoDQ0xR3DjmyD-8" edge="1">
          <mxGeometry relative="1" as="geometry">
            <mxPoint x="-85" y="319.5" as="sourcePoint" />
            <Array as="points">
              <mxPoint x="5" y="320" />
            </Array>
            <mxPoint x="5" y="319.5" as="targetPoint" />
          </mxGeometry>
        </mxCell>
        <mxCell id="v_zlEybOoDQ0xR3DjmyD-10" style="edgeStyle=orthogonalEdgeStyle;rounded=0;orthogonalLoop=1;jettySize=auto;html=1;shape=flexArrow;strokeWidth=1;fillColor=#B3B3B3;strokeColor=none;fontSize=15;entryX=0.5;entryY=1;entryDx=0;entryDy=0;" parent="1" target="v_zlEybOoDQ0xR3DjmyD-8" edge="1">
          <mxGeometry relative="1" as="geometry">
            <mxPoint x="-85" y="469.5" as="sourcePoint" />
            <Array as="points">
              <mxPoint x="5" y="470" />
            </Array>
            <mxPoint x="5" y="469.5" as="targetPoint" />
          </mxGeometry>
        </mxCell>
        <mxCell id="v_zlEybOoDQ0xR3DjmyD-11" value="①" style="text;html=1;strokeColor=none;fillColor=none;align=center;verticalAlign=middle;whiteSpace=wrap;rounded=0;strokeWidth=1;fontSize=17;" parent="1" vertex="1">
          <mxGeometry x="-180" y="260" width="60" height="30" as="geometry" />
        </mxCell>
        <mxCell id="v_zlEybOoDQ0xR3DjmyD-12" value="②" style="text;html=1;strokeColor=none;fillColor=none;align=center;verticalAlign=middle;whiteSpace=wrap;rounded=0;strokeWidth=1;fontSize=17;" parent="1" vertex="1">
          <mxGeometry x="-180" y="500" width="60" height="30" as="geometry" />
        </mxCell>
        <mxCell id="v_zlEybOoDQ0xR3DjmyD-13" value="③" style="text;html=1;strokeColor=none;fillColor=none;align=center;verticalAlign=middle;whiteSpace=wrap;rounded=0;strokeWidth=1;fontSize=17;" parent="1" vertex="1">
          <mxGeometry x="-75" y="337.5" width="60" height="30" as="geometry" />
        </mxCell>
        <mxCell id="v_zlEybOoDQ0xR3DjmyD-14" value="④" style="text;html=1;strokeColor=none;fillColor=none;align=center;verticalAlign=middle;whiteSpace=wrap;rounded=0;strokeWidth=1;fontSize=17;" parent="1" vertex="1">
          <mxGeometry x="130" y="342.25" width="60" height="30" as="geometry" />
        </mxCell>
        <mxCell id="v_zlEybOoDQ0xR3DjmyD-19" value="⑨" style="text;html=1;strokeColor=none;fillColor=none;align=center;verticalAlign=middle;whiteSpace=wrap;rounded=0;strokeWidth=1;fontSize=17;" parent="1" vertex="1">
          <mxGeometry x="980" y="360.5" width="60" height="30" as="geometry" />
        </mxCell>
        <mxCell id="v_zlEybOoDQ0xR3DjmyD-20" value="⑩" style="text;html=1;strokeColor=none;fillColor=none;align=center;verticalAlign=middle;whiteSpace=wrap;rounded=0;strokeWidth=1;fontSize=17;" parent="1" vertex="1">
          <mxGeometry x="980" y="433" width="60" height="30" as="geometry" />
        </mxCell>
        <mxCell id="v_zlEybOoDQ0xR3DjmyD-21" value="" style="edgeStyle=orthogonalEdgeStyle;rounded=0;orthogonalLoop=1;jettySize=auto;html=1;shape=flexArrow;strokeWidth=1;fillColor=#B3B3B3;strokeColor=none;fontSize=15;entryX=0;entryY=0.5;entryDx=0;entryDy=0;" parent="1" target="v_zlEybOoDQ0xR3DjmyD-1" edge="1">
          <mxGeometry relative="1" as="geometry">
            <mxPoint x="-340" y="396.91" as="sourcePoint" />
            <Array as="points">
              <mxPoint x="-270" y="397" />
              <mxPoint x="-270" y="320" />
            </Array>
            <mxPoint x="-254" y="397.41" as="targetPoint" />
          </mxGeometry>
        </mxCell>
      </root>
    </mxGraphModel>
  </diagram>
  <diagram id="3oOyCHtbvFhwPL7-FY2E" name="光荣榜">
    <mxGraphModel dx="2261" dy="746" grid="1" gridSize="10" guides="1" tooltips="1" connect="1" arrows="1" fold="1" page="1" pageScale="1" pageWidth="827" pageHeight="1169" math="0" shadow="0">
      <root>
        <mxCell id="0" />
        <mxCell id="1" parent="0" />
        <mxCell id="5E58W93Swa9elbXWyOXG-1" value="提交" style="rounded=0;whiteSpace=wrap;html=1;fontSize=15;" parent="1" vertex="1">
          <mxGeometry x="354" y="372.5" width="120" height="60" as="geometry" />
        </mxCell>
        <mxCell id="5E58W93Swa9elbXWyOXG-2" value="&lt;font style=&quot;font-size: 15px;&quot;&gt;审批&lt;/font&gt;" style="rhombus;whiteSpace=wrap;html=1;" parent="1" vertex="1">
          <mxGeometry x="560" y="363" width="130" height="80" as="geometry" />
        </mxCell>
        <mxCell id="5E58W93Swa9elbXWyOXG-3" value="荣誉信息清单" style="rounded=0;whiteSpace=wrap;html=1;fontSize=15;" parent="1" vertex="1">
          <mxGeometry x="780" y="373" width="120" height="60" as="geometry" />
        </mxCell>
        <mxCell id="5E58W93Swa9elbXWyOXG-4" value="编辑荣誉信息" style="rounded=0;whiteSpace=wrap;html=1;fontSize=15;" parent="1" vertex="1">
          <mxGeometry x="354" y="270" width="120" height="60" as="geometry" />
        </mxCell>
        <mxCell id="5E58W93Swa9elbXWyOXG-5" value="删除荣誉信息" style="rounded=0;whiteSpace=wrap;html=1;fontSize=15;" parent="1" vertex="1">
          <mxGeometry x="1020" y="302.75" width="120" height="60" as="geometry" />
        </mxCell>
        <mxCell id="5E58W93Swa9elbXWyOXG-6" value="荣誉信息详情" style="rounded=0;whiteSpace=wrap;html=1;fontSize=15;" parent="1" vertex="1">
          <mxGeometry x="1020" y="372.25" width="120" height="60" as="geometry" />
        </mxCell>
        <mxCell id="5E58W93Swa9elbXWyOXG-7" value="荣誉上架/下架" style="rounded=0;whiteSpace=wrap;html=1;fontSize=15;" parent="1" vertex="1">
          <mxGeometry x="1020" y="442.25" width="120" height="60" as="geometry" />
        </mxCell>
        <mxCell id="5E58W93Swa9elbXWyOXG-8" style="edgeStyle=orthogonalEdgeStyle;rounded=0;orthogonalLoop=1;jettySize=auto;html=1;shape=flexArrow;strokeWidth=1;fillColor=#B3B3B3;strokeColor=none;fontSize=15;" parent="1" source="5E58W93Swa9elbXWyOXG-10" edge="1">
          <mxGeometry relative="1" as="geometry">
            <mxPoint x="65" y="402.5" as="sourcePoint" />
            <Array as="points">
              <mxPoint x="265" y="402.5" />
              <mxPoint x="265" y="402.5" />
            </Array>
            <mxPoint x="155" y="402.5" as="targetPoint" />
          </mxGeometry>
        </mxCell>
        <mxCell id="5E58W93Swa9elbXWyOXG-9" value="" style="edgeStyle=orthogonalEdgeStyle;rounded=0;orthogonalLoop=1;jettySize=auto;html=1;shape=flexArrow;strokeWidth=1;fillColor=#B3B3B3;strokeColor=none;fontSize=15;" parent="1" target="5E58W93Swa9elbXWyOXG-10" edge="1">
          <mxGeometry relative="1" as="geometry">
            <mxPoint x="65" y="402.5" as="sourcePoint" />
            <Array as="points" />
            <mxPoint x="155" y="402.5" as="targetPoint" />
          </mxGeometry>
        </mxCell>
        <mxCell id="5E58W93Swa9elbXWyOXG-10" value="增加荣誉信息" style="rounded=0;whiteSpace=wrap;html=1;fontSize=15;" parent="1" vertex="1">
          <mxGeometry x="151" y="373" width="120" height="60" as="geometry" />
        </mxCell>
        <mxCell id="5E58W93Swa9elbXWyOXG-11" value="" style="edgeStyle=orthogonalEdgeStyle;rounded=0;orthogonalLoop=1;jettySize=auto;html=1;shape=flexArrow;strokeWidth=1;fillColor=#B3B3B3;strokeColor=none;fontSize=15;" parent="1" edge="1">
          <mxGeometry relative="1" as="geometry">
            <mxPoint x="270" y="402.5" as="sourcePoint" />
            <Array as="points" />
            <mxPoint x="355" y="403" as="targetPoint" />
          </mxGeometry>
        </mxCell>
        <mxCell id="5E58W93Swa9elbXWyOXG-12" value="" style="edgeStyle=orthogonalEdgeStyle;rounded=0;orthogonalLoop=1;jettySize=auto;html=1;shape=flexArrow;strokeWidth=1;fillColor=#B3B3B3;strokeColor=none;fontSize=15;" parent="1" edge="1">
          <mxGeometry relative="1" as="geometry">
            <mxPoint x="474" y="402.5" as="sourcePoint" />
            <Array as="points" />
            <mxPoint x="559" y="403" as="targetPoint" />
          </mxGeometry>
        </mxCell>
        <mxCell id="5E58W93Swa9elbXWyOXG-13" style="edgeStyle=orthogonalEdgeStyle;rounded=0;orthogonalLoop=1;jettySize=auto;html=1;shape=flexArrow;strokeWidth=1;fillColor=#B3B3B3;strokeColor=none;fontSize=15;exitX=0.5;exitY=0;exitDx=0;exitDy=0;entryX=0.5;entryY=0;entryDx=0;entryDy=0;" parent="1" source="5E58W93Swa9elbXWyOXG-2" target="5E58W93Swa9elbXWyOXG-4" edge="1">
          <mxGeometry relative="1" as="geometry">
            <mxPoint x="490" y="310" as="sourcePoint" />
            <Array as="points">
              <mxPoint x="625" y="220" />
              <mxPoint x="414" y="220" />
            </Array>
            <mxPoint x="350" y="130" as="targetPoint" />
          </mxGeometry>
        </mxCell>
        <mxCell id="5E58W93Swa9elbXWyOXG-14" style="edgeStyle=orthogonalEdgeStyle;rounded=0;orthogonalLoop=1;jettySize=auto;html=1;shape=flexArrow;strokeWidth=1;fillColor=#B3B3B3;strokeColor=none;fontSize=15;" parent="1" target="5E58W93Swa9elbXWyOXG-1" edge="1">
          <mxGeometry relative="1" as="geometry">
            <mxPoint x="414" y="330" as="sourcePoint" />
            <Array as="points">
              <mxPoint x="414" y="340" />
              <mxPoint x="414" y="340" />
            </Array>
            <mxPoint x="457" y="380" as="targetPoint" />
          </mxGeometry>
        </mxCell>
        <mxCell id="5E58W93Swa9elbXWyOXG-15" value="" style="edgeStyle=orthogonalEdgeStyle;rounded=0;orthogonalLoop=1;jettySize=auto;html=1;shape=flexArrow;strokeWidth=1;fillColor=#B3B3B3;strokeColor=none;fontSize=15;entryX=0;entryY=0.5;entryDx=0;entryDy=0;exitX=1;exitY=0.5;exitDx=0;exitDy=0;" parent="1" source="5E58W93Swa9elbXWyOXG-2" target="5E58W93Swa9elbXWyOXG-3" edge="1">
          <mxGeometry relative="1" as="geometry">
            <mxPoint x="660" y="610" as="sourcePoint" />
            <Array as="points" />
            <mxPoint x="775" y="402.5" as="targetPoint" />
          </mxGeometry>
        </mxCell>
        <mxCell id="5E58W93Swa9elbXWyOXG-16" style="edgeStyle=orthogonalEdgeStyle;rounded=0;orthogonalLoop=1;jettySize=auto;html=1;shape=flexArrow;strokeWidth=1;fillColor=#B3B3B3;strokeColor=none;fontSize=15;entryX=0;entryY=0.5;entryDx=0;entryDy=0;" parent="1" target="5E58W93Swa9elbXWyOXG-5" edge="1">
          <mxGeometry relative="1" as="geometry">
            <mxPoint x="900" y="402" as="sourcePoint" />
            <Array as="points">
              <mxPoint x="950" y="402" />
              <mxPoint x="950" y="333" />
            </Array>
            <mxPoint x="990" y="402" as="targetPoint" />
          </mxGeometry>
        </mxCell>
        <mxCell id="5E58W93Swa9elbXWyOXG-17" style="edgeStyle=orthogonalEdgeStyle;rounded=0;orthogonalLoop=1;jettySize=auto;html=1;shape=flexArrow;strokeWidth=1;fillColor=#B3B3B3;strokeColor=none;fontSize=15;entryX=0;entryY=0.5;entryDx=0;entryDy=0;" parent="1" target="5E58W93Swa9elbXWyOXG-6" edge="1">
          <mxGeometry relative="1" as="geometry">
            <mxPoint x="900" y="402" as="sourcePoint" />
            <Array as="points" />
            <mxPoint x="990" y="402" as="targetPoint" />
          </mxGeometry>
        </mxCell>
        <mxCell id="5E58W93Swa9elbXWyOXG-18" style="edgeStyle=orthogonalEdgeStyle;rounded=0;orthogonalLoop=1;jettySize=auto;html=1;shape=flexArrow;strokeWidth=1;fillColor=#B3B3B3;strokeColor=none;fontSize=15;" parent="1" edge="1">
          <mxGeometry relative="1" as="geometry">
            <mxPoint x="900" y="402" as="sourcePoint" />
            <Array as="points">
              <mxPoint x="950" y="402" />
              <mxPoint x="950" y="470" />
            </Array>
            <mxPoint x="1019" y="470" as="targetPoint" />
          </mxGeometry>
        </mxCell>
        <mxCell id="5E58W93Swa9elbXWyOXG-19" value="" style="edgeStyle=orthogonalEdgeStyle;rounded=0;orthogonalLoop=1;jettySize=auto;html=1;shape=flexArrow;strokeWidth=1;fillColor=#B3B3B3;strokeColor=none;fontSize=15;" parent="1" edge="1">
          <mxGeometry relative="1" as="geometry">
            <mxPoint x="1140" y="402" as="sourcePoint" />
            <Array as="points" />
            <mxPoint x="1290" y="403" as="targetPoint" />
          </mxGeometry>
        </mxCell>
        <mxCell id="5E58W93Swa9elbXWyOXG-20" value="" style="ellipse;fillColor=strokeColor;html=1;fontSize=15;" parent="1" vertex="1">
          <mxGeometry x="1290" y="390.5" width="25" height="25" as="geometry" />
        </mxCell>
        <mxCell id="5E58W93Swa9elbXWyOXG-21" style="edgeStyle=orthogonalEdgeStyle;rounded=0;orthogonalLoop=1;jettySize=auto;html=1;shape=flexArrow;strokeWidth=1;fillColor=#B3B3B3;strokeColor=none;fontSize=15;" parent="1" edge="1">
          <mxGeometry relative="1" as="geometry">
            <mxPoint x="1141" y="332.25" as="sourcePoint" />
            <Array as="points">
              <mxPoint x="1210" y="332" />
              <mxPoint x="1210" y="403" />
            </Array>
            <mxPoint x="1290" y="403" as="targetPoint" />
          </mxGeometry>
        </mxCell>
        <mxCell id="5E58W93Swa9elbXWyOXG-22" style="edgeStyle=orthogonalEdgeStyle;rounded=0;orthogonalLoop=1;jettySize=auto;html=1;shape=flexArrow;strokeWidth=1;fillColor=#B3B3B3;strokeColor=none;fontSize=15;" parent="1" edge="1">
          <mxGeometry relative="1" as="geometry">
            <mxPoint x="1140" y="471.75" as="sourcePoint" />
            <Array as="points">
              <mxPoint x="1210" y="472" />
              <mxPoint x="1210" y="403" />
            </Array>
            <mxPoint x="1290" y="403" as="targetPoint" />
          </mxGeometry>
        </mxCell>
        <mxCell id="5E58W93Swa9elbXWyOXG-23" value="通过" style="text;html=1;strokeColor=none;fillColor=none;align=center;verticalAlign=middle;whiteSpace=wrap;rounded=0;strokeWidth=1;fontSize=17;" parent="1" vertex="1">
          <mxGeometry x="700" y="372.25" width="60" height="30" as="geometry" />
        </mxCell>
        <mxCell id="5E58W93Swa9elbXWyOXG-24" value="驳回" style="text;html=1;strokeColor=none;fillColor=none;align=center;verticalAlign=middle;whiteSpace=wrap;rounded=0;strokeWidth=1;fontSize=17;" parent="1" vertex="1">
          <mxGeometry x="570" y="285" width="60" height="30" as="geometry" />
        </mxCell>
        <mxCell id="5E58W93Swa9elbXWyOXG-25" value="⑤" style="text;html=1;strokeColor=none;fillColor=none;align=center;verticalAlign=middle;whiteSpace=wrap;rounded=0;strokeWidth=1;fontSize=17;" parent="1" vertex="1">
          <mxGeometry x="330" y="342.25" width="60" height="30" as="geometry" />
        </mxCell>
        <mxCell id="5E58W93Swa9elbXWyOXG-26" value="⑥" style="text;html=1;strokeColor=none;fillColor=none;align=center;verticalAlign=middle;whiteSpace=wrap;rounded=0;strokeWidth=1;fontSize=17;" parent="1" vertex="1">
          <mxGeometry x="540" y="355" width="60" height="30" as="geometry" />
        </mxCell>
        <mxCell id="5E58W93Swa9elbXWyOXG-27" value="⑦" style="text;html=1;strokeColor=none;fillColor=none;align=center;verticalAlign=middle;whiteSpace=wrap;rounded=0;strokeWidth=1;fontSize=17;" parent="1" vertex="1">
          <mxGeometry x="330" y="240" width="60" height="30" as="geometry" />
        </mxCell>
        <mxCell id="5E58W93Swa9elbXWyOXG-28" value="⑧" style="text;html=1;strokeColor=none;fillColor=none;align=center;verticalAlign=middle;whiteSpace=wrap;rounded=0;strokeWidth=1;fontSize=17;" parent="1" vertex="1">
          <mxGeometry x="980" y="290" width="60" height="30" as="geometry" />
        </mxCell>
        <mxCell id="5E58W93Swa9elbXWyOXG-29" value="输入关键字" style="rounded=0;whiteSpace=wrap;html=1;fontSize=15;" parent="1" vertex="1">
          <mxGeometry x="-205" y="290" width="120" height="60" as="geometry" />
        </mxCell>
        <mxCell id="5E58W93Swa9elbXWyOXG-30" value="" style="ellipse;fillColor=strokeColor;html=1;fontSize=15;" parent="1" vertex="1">
          <mxGeometry x="-365" y="385" width="25" height="25" as="geometry" />
        </mxCell>
        <mxCell id="5E58W93Swa9elbXWyOXG-31" value="荣誉状态条件筛选" style="rounded=0;whiteSpace=wrap;html=1;fontSize=15;" parent="1" vertex="1">
          <mxGeometry x="-205" y="440" width="120" height="60" as="geometry" />
        </mxCell>
        <mxCell id="5E58W93Swa9elbXWyOXG-32" style="edgeStyle=orthogonalEdgeStyle;rounded=0;orthogonalLoop=1;jettySize=auto;html=1;shape=flexArrow;strokeWidth=1;fillColor=#B3B3B3;strokeColor=none;fontSize=15;exitX=1;exitY=0.5;exitDx=0;exitDy=0;" parent="1" source="5E58W93Swa9elbXWyOXG-30" edge="1">
          <mxGeometry relative="1" as="geometry">
            <mxPoint x="-275" y="400" as="sourcePoint" />
            <Array as="points">
              <mxPoint x="-270" y="398" />
              <mxPoint x="-270" y="470" />
            </Array>
            <mxPoint x="-205" y="470" as="targetPoint" />
          </mxGeometry>
        </mxCell>
        <mxCell id="5E58W93Swa9elbXWyOXG-33" style="edgeStyle=orthogonalEdgeStyle;rounded=0;orthogonalLoop=1;jettySize=auto;html=1;shape=flexArrow;strokeWidth=1;fillColor=#B3B3B3;strokeColor=none;fontSize=15;" parent="1" edge="1">
          <mxGeometry relative="1" as="geometry">
            <mxPoint x="-175" y="350" as="sourcePoint" />
            <Array as="points">
              <mxPoint x="15" y="410" />
              <mxPoint x="15" y="410" />
            </Array>
            <mxPoint x="-175" y="440" as="targetPoint" />
          </mxGeometry>
        </mxCell>
        <mxCell id="5E58W93Swa9elbXWyOXG-34" style="edgeStyle=orthogonalEdgeStyle;rounded=0;orthogonalLoop=1;jettySize=auto;html=1;shape=flexArrow;strokeWidth=1;fillColor=#B3B3B3;strokeColor=none;fontSize=15;" parent="1" edge="1">
          <mxGeometry relative="1" as="geometry">
            <mxPoint x="-125" y="440" as="sourcePoint" />
            <Array as="points">
              <mxPoint x="65" y="410" />
              <mxPoint x="65" y="410" />
            </Array>
            <mxPoint x="-125" y="350" as="targetPoint" />
          </mxGeometry>
        </mxCell>
        <mxCell id="5E58W93Swa9elbXWyOXG-35" value="荣誉信息清单" style="rounded=0;whiteSpace=wrap;html=1;fontSize=15;" parent="1" vertex="1">
          <mxGeometry x="-55" y="372.25" width="120" height="60" as="geometry" />
        </mxCell>
        <mxCell id="5E58W93Swa9elbXWyOXG-36" style="edgeStyle=orthogonalEdgeStyle;rounded=0;orthogonalLoop=1;jettySize=auto;html=1;shape=flexArrow;strokeWidth=1;fillColor=#B3B3B3;strokeColor=none;fontSize=15;entryX=0.5;entryY=0;entryDx=0;entryDy=0;" parent="1" target="5E58W93Swa9elbXWyOXG-35" edge="1">
          <mxGeometry relative="1" as="geometry">
            <mxPoint x="-85" y="319.5" as="sourcePoint" />
            <Array as="points">
              <mxPoint x="5" y="320" />
            </Array>
            <mxPoint x="5" y="319.5" as="targetPoint" />
          </mxGeometry>
        </mxCell>
        <mxCell id="5E58W93Swa9elbXWyOXG-37" style="edgeStyle=orthogonalEdgeStyle;rounded=0;orthogonalLoop=1;jettySize=auto;html=1;shape=flexArrow;strokeWidth=1;fillColor=#B3B3B3;strokeColor=none;fontSize=15;entryX=0.5;entryY=1;entryDx=0;entryDy=0;" parent="1" target="5E58W93Swa9elbXWyOXG-35" edge="1">
          <mxGeometry relative="1" as="geometry">
            <mxPoint x="-85" y="469.5" as="sourcePoint" />
            <Array as="points">
              <mxPoint x="5" y="470" />
            </Array>
            <mxPoint x="5" y="469.5" as="targetPoint" />
          </mxGeometry>
        </mxCell>
        <mxCell id="5E58W93Swa9elbXWyOXG-38" value="①" style="text;html=1;strokeColor=none;fillColor=none;align=center;verticalAlign=middle;whiteSpace=wrap;rounded=0;strokeWidth=1;fontSize=17;" parent="1" vertex="1">
          <mxGeometry x="-180" y="260" width="60" height="30" as="geometry" />
        </mxCell>
        <mxCell id="5E58W93Swa9elbXWyOXG-39" value="②" style="text;html=1;strokeColor=none;fillColor=none;align=center;verticalAlign=middle;whiteSpace=wrap;rounded=0;strokeWidth=1;fontSize=17;" parent="1" vertex="1">
          <mxGeometry x="-180" y="500" width="60" height="30" as="geometry" />
        </mxCell>
        <mxCell id="5E58W93Swa9elbXWyOXG-40" value="③" style="text;html=1;strokeColor=none;fillColor=none;align=center;verticalAlign=middle;whiteSpace=wrap;rounded=0;strokeWidth=1;fontSize=17;" parent="1" vertex="1">
          <mxGeometry x="-75" y="343" width="60" height="30" as="geometry" />
        </mxCell>
        <mxCell id="5E58W93Swa9elbXWyOXG-41" value="④" style="text;html=1;strokeColor=none;fillColor=none;align=center;verticalAlign=middle;whiteSpace=wrap;rounded=0;strokeWidth=1;fontSize=17;" parent="1" vertex="1">
          <mxGeometry x="130" y="342.25" width="60" height="30" as="geometry" />
        </mxCell>
        <mxCell id="5E58W93Swa9elbXWyOXG-42" value="⑨" style="text;html=1;strokeColor=none;fillColor=none;align=center;verticalAlign=middle;whiteSpace=wrap;rounded=0;strokeWidth=1;fontSize=17;" parent="1" vertex="1">
          <mxGeometry x="980" y="360.5" width="60" height="30" as="geometry" />
        </mxCell>
        <mxCell id="5E58W93Swa9elbXWyOXG-43" value="⑩" style="text;html=1;strokeColor=none;fillColor=none;align=center;verticalAlign=middle;whiteSpace=wrap;rounded=0;strokeWidth=1;fontSize=17;" parent="1" vertex="1">
          <mxGeometry x="980" y="433" width="60" height="30" as="geometry" />
        </mxCell>
        <mxCell id="5E58W93Swa9elbXWyOXG-44" value="" style="edgeStyle=orthogonalEdgeStyle;rounded=0;orthogonalLoop=1;jettySize=auto;html=1;shape=flexArrow;strokeWidth=1;fillColor=#B3B3B3;strokeColor=none;fontSize=15;entryX=0;entryY=0.5;entryDx=0;entryDy=0;" parent="1" target="5E58W93Swa9elbXWyOXG-29" edge="1">
          <mxGeometry relative="1" as="geometry">
            <mxPoint x="-340" y="396.91" as="sourcePoint" />
            <Array as="points">
              <mxPoint x="-270" y="397" />
              <mxPoint x="-270" y="320" />
            </Array>
            <mxPoint x="-254" y="397.41" as="targetPoint" />
          </mxGeometry>
        </mxCell>
      </root>
    </mxGraphModel>
  </diagram>
  <diagram id="pIIQFhMATky_71hhG1-g" name="外链管理">
    <mxGraphModel dx="1434" dy="746" grid="1" gridSize="10" guides="1" tooltips="1" connect="1" arrows="1" fold="1" page="1" pageScale="1" pageWidth="827" pageHeight="1169" math="0" shadow="0">
      <root>
        <mxCell id="0" />
        <mxCell id="1" parent="0" />
        <mxCell id="aqhlxHlkg3eaZiV5jj4o-25" value="②" style="text;html=1;strokeColor=none;fillColor=none;align=center;verticalAlign=middle;whiteSpace=wrap;rounded=0;strokeWidth=1;fontSize=17;movable=1;resizable=1;rotatable=1;deletable=1;editable=1;locked=0;connectable=1;" parent="1" vertex="1">
          <mxGeometry x="220" y="570" width="60" height="30" as="geometry" />
        </mxCell>
        <mxCell id="aqhlxHlkg3eaZiV5jj4o-27" value="④" style="text;html=1;strokeColor=none;fillColor=none;align=center;verticalAlign=middle;whiteSpace=wrap;rounded=0;strokeWidth=1;fontSize=17;movable=1;resizable=1;rotatable=1;deletable=1;editable=1;locked=0;connectable=1;" parent="1" vertex="1">
          <mxGeometry x="580" y="500" width="60" height="30" as="geometry" />
        </mxCell>
        <mxCell id="aqhlxHlkg3eaZiV5jj4o-28" value="⑤" style="text;html=1;strokeColor=none;fillColor=none;align=center;verticalAlign=middle;whiteSpace=wrap;rounded=0;strokeWidth=1;fontSize=17;movable=1;resizable=1;rotatable=1;deletable=1;editable=1;locked=0;connectable=1;" parent="1" vertex="1">
          <mxGeometry x="580" y="570" width="60" height="30" as="geometry" />
        </mxCell>
        <mxCell id="aqhlxHlkg3eaZiV5jj4o-29" value="⑥" style="text;html=1;strokeColor=none;fillColor=none;align=center;verticalAlign=middle;whiteSpace=wrap;rounded=0;strokeWidth=1;fontSize=17;movable=1;resizable=1;rotatable=1;deletable=1;editable=1;locked=0;connectable=1;" parent="1" vertex="1">
          <mxGeometry x="580" y="635" width="60" height="30" as="geometry" />
        </mxCell>
        <mxCell id="aqhlxHlkg3eaZiV5jj4o-30" value="⑦" style="text;html=1;strokeColor=none;fillColor=none;align=center;verticalAlign=middle;whiteSpace=wrap;rounded=0;strokeWidth=1;fontSize=17;movable=1;resizable=1;rotatable=1;deletable=1;editable=1;locked=0;connectable=1;" parent="1" vertex="1">
          <mxGeometry x="580" y="707.5" width="60" height="30" as="geometry" />
        </mxCell>
        <mxCell id="3yVX-SKlLbVtv5GwwklZ-1" value="输入关键字" style="rounded=0;whiteSpace=wrap;html=1;fontSize=15;movable=1;resizable=1;rotatable=1;deletable=1;editable=1;locked=0;connectable=1;" parent="1" vertex="1">
          <mxGeometry x="220" y="570" width="120" height="60" as="geometry" />
        </mxCell>
        <mxCell id="3yVX-SKlLbVtv5GwwklZ-2" style="edgeStyle=orthogonalEdgeStyle;rounded=0;orthogonalLoop=1;jettySize=auto;html=1;shape=flexArrow;strokeWidth=1;fillColor=#B3B3B3;strokeColor=none;fontSize=15;movable=1;resizable=1;rotatable=1;deletable=1;editable=1;locked=0;connectable=1;" parent="1" edge="1">
          <mxGeometry relative="1" as="geometry">
            <mxPoint x="150" y="680" as="sourcePoint" />
            <Array as="points">
              <mxPoint x="330" y="599.5" />
              <mxPoint x="330" y="599.5" />
            </Array>
            <mxPoint x="220" y="599.5" as="targetPoint" />
          </mxGeometry>
        </mxCell>
        <mxCell id="3yVX-SKlLbVtv5GwwklZ-3" value="" style="ellipse;fillColor=strokeColor;html=1;fontSize=15;movable=1;resizable=1;rotatable=1;deletable=1;editable=1;locked=0;connectable=1;" parent="1" vertex="1">
          <mxGeometry x="60" y="665" width="25" height="25" as="geometry" />
        </mxCell>
        <mxCell id="3yVX-SKlLbVtv5GwwklZ-5" value="业务分类条件筛选" style="rounded=0;whiteSpace=wrap;html=1;fontSize=15;movable=1;resizable=1;rotatable=1;deletable=1;editable=1;locked=0;connectable=1;" parent="1" vertex="1">
          <mxGeometry x="220" y="720" width="120" height="60" as="geometry" />
        </mxCell>
        <mxCell id="3yVX-SKlLbVtv5GwwklZ-6" style="edgeStyle=orthogonalEdgeStyle;rounded=0;orthogonalLoop=1;jettySize=auto;html=1;shape=flexArrow;strokeWidth=1;fillColor=#B3B3B3;strokeColor=none;fontSize=15;exitX=1;exitY=0.5;exitDx=0;exitDy=0;movable=1;resizable=1;rotatable=1;deletable=1;editable=1;locked=0;connectable=1;" parent="1" source="3yVX-SKlLbVtv5GwwklZ-3" edge="1">
          <mxGeometry relative="1" as="geometry">
            <mxPoint x="150" y="680" as="sourcePoint" />
            <Array as="points">
              <mxPoint x="150" y="678" />
              <mxPoint x="150" y="750" />
            </Array>
            <mxPoint x="220" y="750" as="targetPoint" />
          </mxGeometry>
        </mxCell>
        <mxCell id="3yVX-SKlLbVtv5GwwklZ-7" style="edgeStyle=orthogonalEdgeStyle;rounded=0;orthogonalLoop=1;jettySize=auto;html=1;shape=flexArrow;strokeWidth=1;fillColor=#B3B3B3;strokeColor=none;fontSize=15;movable=1;resizable=1;rotatable=1;deletable=1;editable=1;locked=0;connectable=1;" parent="1" edge="1">
          <mxGeometry relative="1" as="geometry">
            <mxPoint x="250" y="630" as="sourcePoint" />
            <Array as="points">
              <mxPoint x="440" y="690" />
              <mxPoint x="440" y="690" />
            </Array>
            <mxPoint x="250" y="720" as="targetPoint" />
          </mxGeometry>
        </mxCell>
        <mxCell id="3yVX-SKlLbVtv5GwwklZ-8" style="edgeStyle=orthogonalEdgeStyle;rounded=0;orthogonalLoop=1;jettySize=auto;html=1;shape=flexArrow;strokeWidth=1;fillColor=#B3B3B3;strokeColor=none;fontSize=15;movable=1;resizable=1;rotatable=1;deletable=1;editable=1;locked=0;connectable=1;" parent="1" edge="1">
          <mxGeometry relative="1" as="geometry">
            <mxPoint x="300" y="720" as="sourcePoint" />
            <Array as="points">
              <mxPoint x="490" y="690" />
              <mxPoint x="490" y="690" />
            </Array>
            <mxPoint x="300" y="630" as="targetPoint" />
          </mxGeometry>
        </mxCell>
        <mxCell id="3yVX-SKlLbVtv5GwwklZ-9" value="外链信息清单" style="rounded=0;whiteSpace=wrap;html=1;fontSize=15;movable=1;resizable=1;rotatable=1;deletable=1;editable=1;locked=0;connectable=1;" parent="1" vertex="1">
          <mxGeometry x="370" y="647.5" width="120" height="60" as="geometry" />
        </mxCell>
        <mxCell id="3yVX-SKlLbVtv5GwwklZ-10" style="edgeStyle=orthogonalEdgeStyle;rounded=0;orthogonalLoop=1;jettySize=auto;html=1;shape=flexArrow;strokeWidth=1;fillColor=#B3B3B3;strokeColor=none;fontSize=15;entryX=0.5;entryY=0;entryDx=0;entryDy=0;movable=1;resizable=1;rotatable=1;deletable=1;editable=1;locked=0;connectable=1;" parent="1" target="3yVX-SKlLbVtv5GwwklZ-9" edge="1">
          <mxGeometry relative="1" as="geometry">
            <mxPoint x="340" y="599.5" as="sourcePoint" />
            <Array as="points">
              <mxPoint x="430" y="600" />
            </Array>
            <mxPoint x="430" y="599.5" as="targetPoint" />
          </mxGeometry>
        </mxCell>
        <mxCell id="3yVX-SKlLbVtv5GwwklZ-11" style="edgeStyle=orthogonalEdgeStyle;rounded=0;orthogonalLoop=1;jettySize=auto;html=1;shape=flexArrow;strokeWidth=1;fillColor=#B3B3B3;strokeColor=none;fontSize=15;entryX=0.5;entryY=1;entryDx=0;entryDy=0;movable=1;resizable=1;rotatable=1;deletable=1;editable=1;locked=0;connectable=1;" parent="1" target="3yVX-SKlLbVtv5GwwklZ-9" edge="1">
          <mxGeometry relative="1" as="geometry">
            <mxPoint x="340" y="749.5" as="sourcePoint" />
            <Array as="points">
              <mxPoint x="430" y="750" />
            </Array>
            <mxPoint x="430" y="749.5" as="targetPoint" />
          </mxGeometry>
        </mxCell>
        <mxCell id="3yVX-SKlLbVtv5GwwklZ-12" value="新增外链" style="rounded=0;whiteSpace=wrap;html=1;fontSize=15;movable=1;resizable=1;rotatable=1;deletable=1;editable=1;locked=0;connectable=1;" parent="1" vertex="1">
          <mxGeometry x="620" y="510" width="120" height="60" as="geometry" />
        </mxCell>
        <mxCell id="3yVX-SKlLbVtv5GwwklZ-13" value="编辑外链" style="rounded=0;whiteSpace=wrap;html=1;fontSize=15;movable=1;resizable=1;rotatable=1;deletable=1;editable=1;locked=0;connectable=1;" parent="1" vertex="1">
          <mxGeometry x="620" y="580" width="120" height="60" as="geometry" />
        </mxCell>
        <mxCell id="3yVX-SKlLbVtv5GwwklZ-14" value="删除外链" style="rounded=0;whiteSpace=wrap;html=1;fontSize=15;movable=1;resizable=1;rotatable=1;deletable=1;editable=1;locked=0;connectable=1;" parent="1" vertex="1">
          <mxGeometry x="620" y="720" width="120" height="60" as="geometry" />
        </mxCell>
        <mxCell id="3yVX-SKlLbVtv5GwwklZ-15" value="外链详情" style="rounded=0;whiteSpace=wrap;html=1;fontSize=15;movable=1;resizable=1;rotatable=1;deletable=1;editable=1;locked=0;connectable=1;" parent="1" vertex="1">
          <mxGeometry x="620" y="790" width="120" height="60" as="geometry" />
        </mxCell>
        <mxCell id="3yVX-SKlLbVtv5GwwklZ-24" value="①" style="text;html=1;strokeColor=none;fillColor=none;align=center;verticalAlign=middle;whiteSpace=wrap;rounded=0;strokeWidth=1;fontSize=17;movable=1;resizable=1;rotatable=1;deletable=1;editable=1;locked=0;connectable=1;" parent="1" vertex="1">
          <mxGeometry x="250" y="540" width="60" height="30" as="geometry" />
        </mxCell>
        <mxCell id="3yVX-SKlLbVtv5GwwklZ-25" value="②" style="text;html=1;strokeColor=none;fillColor=none;align=center;verticalAlign=middle;whiteSpace=wrap;rounded=0;strokeWidth=1;fontSize=17;movable=1;resizable=1;rotatable=1;deletable=1;editable=1;locked=0;connectable=1;" parent="1" vertex="1">
          <mxGeometry x="250" y="780" width="60" height="30" as="geometry" />
        </mxCell>
        <mxCell id="3yVX-SKlLbVtv5GwwklZ-26" value="③" style="text;html=1;strokeColor=none;fillColor=none;align=center;verticalAlign=middle;whiteSpace=wrap;rounded=0;strokeWidth=1;fontSize=17;movable=1;resizable=1;rotatable=1;deletable=1;editable=1;locked=0;connectable=1;" parent="1" vertex="1">
          <mxGeometry x="350" y="617.5" width="60" height="30" as="geometry" />
        </mxCell>
        <mxCell id="Az5hwniwncIkxpLTFN9H-1" style="edgeStyle=orthogonalEdgeStyle;rounded=0;orthogonalLoop=1;jettySize=auto;html=1;shape=flexArrow;strokeWidth=1;fillColor=#B3B3B3;strokeColor=none;fontSize=15;entryX=0;entryY=0.5;entryDx=0;entryDy=0;movable=1;resizable=1;rotatable=1;deletable=1;editable=1;locked=0;connectable=1;" parent="1" target="3yVX-SKlLbVtv5GwwklZ-12" edge="1">
          <mxGeometry relative="1" as="geometry">
            <mxPoint x="490" y="677" as="sourcePoint" />
            <Array as="points">
              <mxPoint x="550" y="677" />
              <mxPoint x="550" y="540" />
            </Array>
            <mxPoint x="580" y="677" as="targetPoint" />
          </mxGeometry>
        </mxCell>
        <mxCell id="3yVX-SKlLbVtv5GwwklZ-32" value="编辑外链详情" style="rounded=0;whiteSpace=wrap;html=1;fontSize=15;movable=1;resizable=1;rotatable=1;deletable=1;editable=1;locked=0;connectable=1;" parent="1" vertex="1">
          <mxGeometry x="620" y="647.5" width="120" height="60" as="geometry" />
        </mxCell>
        <mxCell id="E5X8BJF0K3Vb6Y-bx3qq-2" style="edgeStyle=orthogonalEdgeStyle;rounded=0;orthogonalLoop=1;jettySize=auto;html=1;shape=flexArrow;strokeWidth=1;fillColor=#B3B3B3;strokeColor=none;fontSize=15;entryX=0;entryY=0.5;entryDx=0;entryDy=0;movable=1;resizable=1;rotatable=1;deletable=1;editable=1;locked=0;connectable=1;" parent="1" target="3yVX-SKlLbVtv5GwwklZ-15" edge="1">
          <mxGeometry relative="1" as="geometry">
            <mxPoint x="490" y="677" as="sourcePoint" />
            <Array as="points">
              <mxPoint x="550" y="677" />
              <mxPoint x="550" y="820" />
            </Array>
            <mxPoint x="580" y="677" as="targetPoint" />
          </mxGeometry>
        </mxCell>
        <mxCell id="E5X8BJF0K3Vb6Y-bx3qq-3" style="edgeStyle=orthogonalEdgeStyle;rounded=0;orthogonalLoop=1;jettySize=auto;html=1;shape=flexArrow;strokeWidth=1;fillColor=#B3B3B3;strokeColor=none;fontSize=15;entryX=0;entryY=0.5;entryDx=0;entryDy=0;movable=1;resizable=1;rotatable=1;deletable=1;editable=1;locked=0;connectable=1;" parent="1" target="3yVX-SKlLbVtv5GwwklZ-14" edge="1">
          <mxGeometry relative="1" as="geometry">
            <mxPoint x="490" y="677" as="sourcePoint" />
            <Array as="points">
              <mxPoint x="550" y="677" />
              <mxPoint x="550" y="750" />
            </Array>
            <mxPoint x="580" y="677" as="targetPoint" />
          </mxGeometry>
        </mxCell>
        <mxCell id="E5X8BJF0K3Vb6Y-bx3qq-4" style="edgeStyle=orthogonalEdgeStyle;rounded=0;orthogonalLoop=1;jettySize=auto;html=1;shape=flexArrow;strokeWidth=1;fillColor=#B3B3B3;strokeColor=none;fontSize=15;entryX=0;entryY=0.5;entryDx=0;entryDy=0;movable=1;resizable=1;rotatable=1;deletable=1;editable=1;locked=0;connectable=1;" parent="1" target="3yVX-SKlLbVtv5GwwklZ-32" edge="1">
          <mxGeometry relative="1" as="geometry">
            <mxPoint x="490" y="677" as="sourcePoint" />
            <Array as="points" />
            <mxPoint x="580" y="677" as="targetPoint" />
          </mxGeometry>
        </mxCell>
        <mxCell id="E5X8BJF0K3Vb6Y-bx3qq-5" style="edgeStyle=orthogonalEdgeStyle;rounded=0;orthogonalLoop=1;jettySize=auto;html=1;shape=flexArrow;strokeWidth=1;fillColor=#B3B3B3;strokeColor=none;fontSize=15;entryX=0;entryY=0.5;entryDx=0;entryDy=0;movable=1;resizable=1;rotatable=1;deletable=1;editable=1;locked=0;connectable=1;" parent="1" target="3yVX-SKlLbVtv5GwwklZ-13" edge="1">
          <mxGeometry relative="1" as="geometry">
            <mxPoint x="490" y="677" as="sourcePoint" />
            <Array as="points">
              <mxPoint x="550" y="677" />
              <mxPoint x="550" y="610" />
            </Array>
            <mxPoint x="580" y="677" as="targetPoint" />
          </mxGeometry>
        </mxCell>
        <mxCell id="E5X8BJF0K3Vb6Y-bx3qq-18" style="edgeStyle=orthogonalEdgeStyle;rounded=0;orthogonalLoop=1;jettySize=auto;html=1;shape=flexArrow;strokeWidth=1;fillColor=#B3B3B3;strokeColor=none;fontSize=15;entryX=0;entryY=0.5;entryDx=0;entryDy=0;movable=1;resizable=1;rotatable=1;deletable=1;editable=1;locked=0;connectable=1;" parent="1" target="E5X8BJF0K3Vb6Y-bx3qq-27" edge="1">
          <mxGeometry relative="1" as="geometry">
            <mxPoint x="740" y="749.5" as="sourcePoint" />
            <Array as="points">
              <mxPoint x="810" y="750" />
              <mxPoint x="810" y="678" />
            </Array>
            <mxPoint x="880" y="677.5" as="targetPoint" />
          </mxGeometry>
        </mxCell>
        <mxCell id="E5X8BJF0K3Vb6Y-bx3qq-19" style="edgeStyle=orthogonalEdgeStyle;rounded=0;orthogonalLoop=1;jettySize=auto;html=1;shape=flexArrow;strokeWidth=1;fillColor=#B3B3B3;strokeColor=none;fontSize=15;entryX=0;entryY=0.5;entryDx=0;entryDy=0;movable=1;resizable=1;rotatable=1;deletable=1;editable=1;locked=0;connectable=1;" parent="1" target="E5X8BJF0K3Vb6Y-bx3qq-27" edge="1">
          <mxGeometry relative="1" as="geometry">
            <mxPoint x="740" y="609.5" as="sourcePoint" />
            <Array as="points">
              <mxPoint x="810" y="610" />
              <mxPoint x="810" y="678" />
            </Array>
            <mxPoint x="880" y="677.5" as="targetPoint" />
          </mxGeometry>
        </mxCell>
        <mxCell id="E5X8BJF0K3Vb6Y-bx3qq-21" style="edgeStyle=orthogonalEdgeStyle;rounded=0;orthogonalLoop=1;jettySize=auto;html=1;shape=flexArrow;strokeWidth=1;fillColor=#B3B3B3;strokeColor=none;fontSize=15;entryX=0;entryY=0.5;entryDx=0;entryDy=0;movable=1;resizable=1;rotatable=1;deletable=1;editable=1;locked=0;connectable=1;" parent="1" target="E5X8BJF0K3Vb6Y-bx3qq-27" edge="1">
          <mxGeometry relative="1" as="geometry">
            <mxPoint x="740" y="540" as="sourcePoint" />
            <Array as="points">
              <mxPoint x="810" y="540" />
              <mxPoint x="810" y="678" />
            </Array>
            <mxPoint x="880" y="677.5" as="targetPoint" />
          </mxGeometry>
        </mxCell>
        <mxCell id="E5X8BJF0K3Vb6Y-bx3qq-24" style="edgeStyle=orthogonalEdgeStyle;rounded=0;orthogonalLoop=1;jettySize=auto;html=1;shape=flexArrow;strokeWidth=1;fillColor=#B3B3B3;strokeColor=none;fontSize=15;entryX=0;entryY=0.6;entryDx=0;entryDy=0;entryPerimeter=0;movable=1;resizable=1;rotatable=1;deletable=1;editable=1;locked=0;connectable=1;" parent="1" target="E5X8BJF0K3Vb6Y-bx3qq-27" edge="1">
          <mxGeometry relative="1" as="geometry">
            <mxPoint x="740" y="680" as="sourcePoint" />
            <Array as="points" />
            <mxPoint x="880" y="680" as="targetPoint" />
          </mxGeometry>
        </mxCell>
        <mxCell id="E5X8BJF0K3Vb6Y-bx3qq-25" style="edgeStyle=orthogonalEdgeStyle;rounded=0;orthogonalLoop=1;jettySize=auto;html=1;shape=flexArrow;strokeWidth=1;fillColor=#B3B3B3;strokeColor=none;fontSize=15;entryX=0;entryY=0.5;entryDx=0;entryDy=0;movable=1;resizable=1;rotatable=1;deletable=1;editable=1;locked=0;connectable=1;" parent="1" target="E5X8BJF0K3Vb6Y-bx3qq-27" edge="1">
          <mxGeometry relative="1" as="geometry">
            <mxPoint x="740" y="819.5" as="sourcePoint" />
            <Array as="points">
              <mxPoint x="810" y="820" />
              <mxPoint x="810" y="678" />
            </Array>
            <mxPoint x="880" y="677.5" as="targetPoint" />
          </mxGeometry>
        </mxCell>
        <mxCell id="E5X8BJF0K3Vb6Y-bx3qq-27" value="" style="ellipse;fillColor=strokeColor;html=1;fontSize=15;movable=1;resizable=1;rotatable=1;deletable=1;editable=1;locked=0;connectable=1;" parent="1" vertex="1">
          <mxGeometry x="890" y="665" width="25" height="25" as="geometry" />
        </mxCell>
        <mxCell id="E5X8BJF0K3Vb6Y-bx3qq-35" value="⑧" style="text;html=1;strokeColor=none;fillColor=none;align=center;verticalAlign=middle;whiteSpace=wrap;rounded=0;strokeWidth=1;fontSize=17;movable=1;resizable=1;rotatable=1;deletable=1;editable=1;locked=0;connectable=1;" parent="1" vertex="1">
          <mxGeometry x="580" y="780" width="60" height="30" as="geometry" />
        </mxCell>
      </root>
    </mxGraphModel>
  </diagram>
  <diagram id="mKmU0ch7A-QUXYX4RQN_" name="业务受理">
    <mxGraphModel dx="1434" dy="746" grid="1" gridSize="10" guides="1" tooltips="1" connect="1" arrows="1" fold="1" page="1" pageScale="1" pageWidth="827" pageHeight="1169" math="0" shadow="0">
      <root>
        <mxCell id="0" />
        <mxCell id="1" parent="0" />
        <mxCell id="Y4PNC2w_DYDQz2GH7DYn-1" value="企业" style="rounded=0;whiteSpace=wrap;html=1;fontSize=15;" parent="1" vertex="1">
          <mxGeometry x="160" y="160" width="200" height="60" as="geometry" />
        </mxCell>
        <mxCell id="Y4PNC2w_DYDQz2GH7DYn-2" value="市场监督管理局" style="rounded=0;whiteSpace=wrap;html=1;fontSize=15;" parent="1" vertex="1">
          <mxGeometry x="360" y="160" width="210" height="60" as="geometry" />
        </mxCell>
        <mxCell id="Y4PNC2w_DYDQz2GH7DYn-3" value="上级" style="rounded=0;whiteSpace=wrap;html=1;fontSize=15;" parent="1" vertex="1">
          <mxGeometry x="570" y="160" width="190" height="60" as="geometry" />
        </mxCell>
        <mxCell id="Y4PNC2w_DYDQz2GH7DYn-19" value="" style="edgeStyle=orthogonalEdgeStyle;rounded=0;orthogonalLoop=1;jettySize=auto;html=1;" parent="1" source="Y4PNC2w_DYDQz2GH7DYn-13" target="Y4PNC2w_DYDQz2GH7DYn-18" edge="1">
          <mxGeometry relative="1" as="geometry" />
        </mxCell>
        <mxCell id="Y4PNC2w_DYDQz2GH7DYn-13" value="业务申请" style="rounded=0;whiteSpace=wrap;html=1;" parent="1" vertex="1">
          <mxGeometry x="210" y="330" width="80" height="40" as="geometry" />
        </mxCell>
        <mxCell id="Y4PNC2w_DYDQz2GH7DYn-17" style="edgeStyle=orthogonalEdgeStyle;rounded=0;orthogonalLoop=1;jettySize=auto;html=1;entryX=0.5;entryY=0;entryDx=0;entryDy=0;" parent="1" source="Y4PNC2w_DYDQz2GH7DYn-15" target="Y4PNC2w_DYDQz2GH7DYn-13" edge="1">
          <mxGeometry relative="1" as="geometry" />
        </mxCell>
        <mxCell id="Y4PNC2w_DYDQz2GH7DYn-15" value="业务配置" style="rounded=0;whiteSpace=wrap;html=1;" parent="1" vertex="1">
          <mxGeometry x="430" y="250" width="80" height="40" as="geometry" />
        </mxCell>
        <mxCell id="Y4PNC2w_DYDQz2GH7DYn-21" value="" style="edgeStyle=orthogonalEdgeStyle;rounded=0;orthogonalLoop=1;jettySize=auto;html=1;" parent="1" source="Y4PNC2w_DYDQz2GH7DYn-18" target="Y4PNC2w_DYDQz2GH7DYn-20" edge="1">
          <mxGeometry relative="1" as="geometry" />
        </mxCell>
        <mxCell id="Y4PNC2w_DYDQz2GH7DYn-23" value="" style="edgeStyle=orthogonalEdgeStyle;rounded=0;orthogonalLoop=1;jettySize=auto;html=1;" parent="1" source="Y4PNC2w_DYDQz2GH7DYn-18" target="Y4PNC2w_DYDQz2GH7DYn-22" edge="1">
          <mxGeometry relative="1" as="geometry" />
        </mxCell>
        <mxCell id="Y4PNC2w_DYDQz2GH7DYn-18" value="业务受理" style="rounded=0;whiteSpace=wrap;html=1;" parent="1" vertex="1">
          <mxGeometry x="430" y="330" width="80" height="40" as="geometry" />
        </mxCell>
        <mxCell id="Y4PNC2w_DYDQz2GH7DYn-20" value="业务办结" style="rounded=0;whiteSpace=wrap;html=1;" parent="1" vertex="1">
          <mxGeometry x="430" y="450" width="80" height="40" as="geometry" />
        </mxCell>
        <mxCell id="Y4PNC2w_DYDQz2GH7DYn-24" style="edgeStyle=orthogonalEdgeStyle;rounded=0;orthogonalLoop=1;jettySize=auto;html=1;exitX=0;exitY=0.5;exitDx=0;exitDy=0;entryX=1;entryY=0.5;entryDx=0;entryDy=0;" parent="1" source="Y4PNC2w_DYDQz2GH7DYn-22" target="Y4PNC2w_DYDQz2GH7DYn-20" edge="1">
          <mxGeometry relative="1" as="geometry" />
        </mxCell>
        <mxCell id="Y4PNC2w_DYDQz2GH7DYn-22" value="递交上级" style="rounded=0;whiteSpace=wrap;html=1;" parent="1" vertex="1">
          <mxGeometry x="630" y="450" width="80" height="40" as="geometry" />
        </mxCell>
        <mxCell id="Y4PNC2w_DYDQz2GH7DYn-28" value="" style="endArrow=none;html=1;strokeWidth=1;rounded=0;entryX=0;entryY=1;entryDx=0;entryDy=0;" parent="1" target="Y4PNC2w_DYDQz2GH7DYn-2" edge="1">
          <mxGeometry width="50" height="50" relative="1" as="geometry">
            <mxPoint x="360" y="520" as="sourcePoint" />
            <mxPoint x="440" y="360" as="targetPoint" />
          </mxGeometry>
        </mxCell>
        <mxCell id="Y4PNC2w_DYDQz2GH7DYn-29" value="" style="endArrow=none;html=1;strokeWidth=1;rounded=0;entryX=0;entryY=1;entryDx=0;entryDy=0;" parent="1" target="Y4PNC2w_DYDQz2GH7DYn-3" edge="1">
          <mxGeometry width="50" height="50" relative="1" as="geometry">
            <mxPoint x="570" y="520" as="sourcePoint" />
            <mxPoint x="370" y="230" as="targetPoint" />
          </mxGeometry>
        </mxCell>
        <mxCell id="Y4PNC2w_DYDQz2GH7DYn-30" value="" style="endArrow=none;html=1;strokeWidth=1;rounded=0;entryX=0;entryY=1;entryDx=0;entryDy=0;" parent="1" target="Y4PNC2w_DYDQz2GH7DYn-1" edge="1">
          <mxGeometry width="50" height="50" relative="1" as="geometry">
            <mxPoint x="160" y="520" as="sourcePoint" />
            <mxPoint x="370" y="230" as="targetPoint" />
          </mxGeometry>
        </mxCell>
        <mxCell id="Y4PNC2w_DYDQz2GH7DYn-31" value="" style="endArrow=none;html=1;strokeWidth=1;rounded=0;entryX=1;entryY=1;entryDx=0;entryDy=0;" parent="1" target="Y4PNC2w_DYDQz2GH7DYn-3" edge="1">
          <mxGeometry width="50" height="50" relative="1" as="geometry">
            <mxPoint x="760" y="520" as="sourcePoint" />
            <mxPoint x="380" y="240" as="targetPoint" />
          </mxGeometry>
        </mxCell>
        <mxCell id="Y4PNC2w_DYDQz2GH7DYn-32" value="" style="endArrow=none;html=1;strokeWidth=1;rounded=0;" parent="1" edge="1">
          <mxGeometry width="50" height="50" relative="1" as="geometry">
            <mxPoint x="760" y="520" as="sourcePoint" />
            <mxPoint x="160" y="520" as="targetPoint" />
          </mxGeometry>
        </mxCell>
        <mxCell id="cKwPMbHMemwAKIU6u7j6-1" value="业务受理" style="rounded=0;whiteSpace=wrap;html=1;fontSize=15;" parent="1" vertex="1">
          <mxGeometry x="669" y="892.5" width="120" height="60" as="geometry" />
        </mxCell>
        <mxCell id="cKwPMbHMemwAKIU6u7j6-2" value="&lt;font style=&quot;font-size: 15px;&quot;&gt;受理&lt;/font&gt;" style="rhombus;whiteSpace=wrap;html=1;" parent="1" vertex="1">
          <mxGeometry x="875" y="883" width="130" height="80" as="geometry" />
        </mxCell>
        <mxCell id="cKwPMbHMemwAKIU6u7j6-3" value="业务办结" style="rounded=0;whiteSpace=wrap;html=1;fontSize=15;" parent="1" vertex="1">
          <mxGeometry x="1095" y="893" width="120" height="60" as="geometry" />
        </mxCell>
        <mxCell id="cKwPMbHMemwAKIU6u7j6-4" value="编辑单据信息" style="rounded=0;whiteSpace=wrap;html=1;fontSize=15;" parent="1" vertex="1">
          <mxGeometry x="669" y="790" width="120" height="60" as="geometry" />
        </mxCell>
        <mxCell id="cKwPMbHMemwAKIU6u7j6-8" style="edgeStyle=orthogonalEdgeStyle;rounded=0;orthogonalLoop=1;jettySize=auto;html=1;shape=flexArrow;strokeWidth=1;fillColor=#B3B3B3;strokeColor=none;fontSize=15;" parent="1" source="cKwPMbHMemwAKIU6u7j6-10" edge="1">
          <mxGeometry relative="1" as="geometry">
            <mxPoint x="380" y="922.5" as="sourcePoint" />
            <Array as="points">
              <mxPoint x="580" y="922.5" />
              <mxPoint x="580" y="922.5" />
            </Array>
            <mxPoint x="470" y="922.5" as="targetPoint" />
          </mxGeometry>
        </mxCell>
        <mxCell id="cKwPMbHMemwAKIU6u7j6-9" value="" style="edgeStyle=orthogonalEdgeStyle;rounded=0;orthogonalLoop=1;jettySize=auto;html=1;shape=flexArrow;strokeWidth=1;fillColor=#B3B3B3;strokeColor=none;fontSize=15;" parent="1" target="cKwPMbHMemwAKIU6u7j6-10" edge="1">
          <mxGeometry relative="1" as="geometry">
            <mxPoint x="380" y="922.5" as="sourcePoint" />
            <Array as="points" />
            <mxPoint x="470" y="922.5" as="targetPoint" />
          </mxGeometry>
        </mxCell>
        <mxCell id="cKwPMbHMemwAKIU6u7j6-10" value="业务申请" style="rounded=0;whiteSpace=wrap;html=1;fontSize=15;" parent="1" vertex="1">
          <mxGeometry x="466" y="893" width="120" height="60" as="geometry" />
        </mxCell>
        <mxCell id="cKwPMbHMemwAKIU6u7j6-11" value="" style="edgeStyle=orthogonalEdgeStyle;rounded=0;orthogonalLoop=1;jettySize=auto;html=1;shape=flexArrow;strokeWidth=1;fillColor=#B3B3B3;strokeColor=none;fontSize=15;" parent="1" edge="1">
          <mxGeometry relative="1" as="geometry">
            <mxPoint x="585" y="922.5" as="sourcePoint" />
            <Array as="points" />
            <mxPoint x="670" y="923" as="targetPoint" />
          </mxGeometry>
        </mxCell>
        <mxCell id="cKwPMbHMemwAKIU6u7j6-12" value="" style="edgeStyle=orthogonalEdgeStyle;rounded=0;orthogonalLoop=1;jettySize=auto;html=1;shape=flexArrow;strokeWidth=1;fillColor=#B3B3B3;strokeColor=none;fontSize=15;" parent="1" edge="1">
          <mxGeometry relative="1" as="geometry">
            <mxPoint x="789" y="922.5" as="sourcePoint" />
            <Array as="points" />
            <mxPoint x="874" y="923" as="targetPoint" />
          </mxGeometry>
        </mxCell>
        <mxCell id="cKwPMbHMemwAKIU6u7j6-13" style="edgeStyle=orthogonalEdgeStyle;rounded=0;orthogonalLoop=1;jettySize=auto;html=1;shape=flexArrow;strokeWidth=1;fillColor=#B3B3B3;strokeColor=none;fontSize=15;exitX=0.5;exitY=0;exitDx=0;exitDy=0;entryX=0.5;entryY=0;entryDx=0;entryDy=0;" parent="1" source="cKwPMbHMemwAKIU6u7j6-2" target="cKwPMbHMemwAKIU6u7j6-4" edge="1">
          <mxGeometry relative="1" as="geometry">
            <mxPoint x="805" y="830" as="sourcePoint" />
            <Array as="points">
              <mxPoint x="940" y="740" />
              <mxPoint x="729" y="740" />
            </Array>
            <mxPoint x="665" y="650" as="targetPoint" />
          </mxGeometry>
        </mxCell>
        <mxCell id="cKwPMbHMemwAKIU6u7j6-14" style="edgeStyle=orthogonalEdgeStyle;rounded=0;orthogonalLoop=1;jettySize=auto;html=1;shape=flexArrow;strokeWidth=1;fillColor=#B3B3B3;strokeColor=none;fontSize=15;" parent="1" target="cKwPMbHMemwAKIU6u7j6-1" edge="1">
          <mxGeometry relative="1" as="geometry">
            <mxPoint x="729" y="850" as="sourcePoint" />
            <Array as="points">
              <mxPoint x="729" y="860" />
              <mxPoint x="729" y="860" />
            </Array>
            <mxPoint x="772" y="900" as="targetPoint" />
          </mxGeometry>
        </mxCell>
        <mxCell id="cKwPMbHMemwAKIU6u7j6-15" value="" style="edgeStyle=orthogonalEdgeStyle;rounded=0;orthogonalLoop=1;jettySize=auto;html=1;shape=flexArrow;strokeWidth=1;fillColor=#B3B3B3;strokeColor=none;fontSize=15;entryX=0;entryY=0.5;entryDx=0;entryDy=0;exitX=1;exitY=0.5;exitDx=0;exitDy=0;" parent="1" source="cKwPMbHMemwAKIU6u7j6-2" target="cKwPMbHMemwAKIU6u7j6-3" edge="1">
          <mxGeometry relative="1" as="geometry">
            <mxPoint x="975" y="1130" as="sourcePoint" />
            <Array as="points" />
            <mxPoint x="1090" y="922.5" as="targetPoint" />
          </mxGeometry>
        </mxCell>
        <mxCell id="cKwPMbHMemwAKIU6u7j6-17" style="edgeStyle=orthogonalEdgeStyle;rounded=0;orthogonalLoop=1;jettySize=auto;html=1;shape=flexArrow;strokeWidth=1;fillColor=#B3B3B3;strokeColor=none;fontSize=15;" parent="1" edge="1">
          <mxGeometry relative="1" as="geometry">
            <mxPoint x="1215" y="922" as="sourcePoint" />
            <Array as="points" />
            <mxPoint x="1310" y="922" as="targetPoint" />
          </mxGeometry>
        </mxCell>
        <mxCell id="cKwPMbHMemwAKIU6u7j6-20" value="" style="ellipse;fillColor=strokeColor;html=1;fontSize=15;" parent="1" vertex="1">
          <mxGeometry x="1310" y="909.75" width="25" height="25" as="geometry" />
        </mxCell>
        <mxCell id="cKwPMbHMemwAKIU6u7j6-23" value="通过" style="text;html=1;strokeColor=none;fillColor=none;align=center;verticalAlign=middle;whiteSpace=wrap;rounded=0;strokeWidth=1;fontSize=17;" parent="1" vertex="1">
          <mxGeometry x="1015" y="892.25" width="60" height="30" as="geometry" />
        </mxCell>
        <mxCell id="cKwPMbHMemwAKIU6u7j6-24" value="驳回" style="text;html=1;strokeColor=none;fillColor=none;align=center;verticalAlign=middle;whiteSpace=wrap;rounded=0;strokeWidth=1;fontSize=17;" parent="1" vertex="1">
          <mxGeometry x="885" y="805" width="60" height="30" as="geometry" />
        </mxCell>
        <mxCell id="cKwPMbHMemwAKIU6u7j6-25" value="⑤" style="text;html=1;strokeColor=none;fillColor=none;align=center;verticalAlign=middle;whiteSpace=wrap;rounded=0;strokeWidth=1;fontSize=17;" parent="1" vertex="1">
          <mxGeometry x="645" y="760" width="60" height="30" as="geometry" />
        </mxCell>
        <mxCell id="cKwPMbHMemwAKIU6u7j6-26" value="⑥" style="text;html=1;strokeColor=none;fillColor=none;align=center;verticalAlign=middle;whiteSpace=wrap;rounded=0;strokeWidth=1;fontSize=17;" parent="1" vertex="1">
          <mxGeometry x="1075" y="862.25" width="60" height="30" as="geometry" />
        </mxCell>
        <mxCell id="cKwPMbHMemwAKIU6u7j6-30" value="" style="ellipse;fillColor=strokeColor;html=1;fontSize=15;" parent="1" vertex="1">
          <mxGeometry x="150" y="909.75" width="25" height="25" as="geometry" />
        </mxCell>
        <mxCell id="cKwPMbHMemwAKIU6u7j6-35" value="业务配置" style="rounded=0;whiteSpace=wrap;html=1;fontSize=15;" parent="1" vertex="1">
          <mxGeometry x="260" y="892.25" width="120" height="60" as="geometry" />
        </mxCell>
        <mxCell id="cKwPMbHMemwAKIU6u7j6-38" value="①" style="text;html=1;strokeColor=none;fillColor=none;align=center;verticalAlign=middle;whiteSpace=wrap;rounded=0;strokeWidth=1;fontSize=17;" parent="1" vertex="1">
          <mxGeometry x="240" y="862.25" width="60" height="30" as="geometry" />
        </mxCell>
        <mxCell id="cKwPMbHMemwAKIU6u7j6-39" value="②" style="text;html=1;strokeColor=none;fillColor=none;align=center;verticalAlign=middle;whiteSpace=wrap;rounded=0;strokeWidth=1;fontSize=17;" parent="1" vertex="1">
          <mxGeometry x="440" y="863" width="60" height="30" as="geometry" />
        </mxCell>
        <mxCell id="cKwPMbHMemwAKIU6u7j6-40" value="③" style="text;html=1;strokeColor=none;fillColor=none;align=center;verticalAlign=middle;whiteSpace=wrap;rounded=0;strokeWidth=1;fontSize=17;" parent="1" vertex="1">
          <mxGeometry x="645" y="863" width="60" height="30" as="geometry" />
        </mxCell>
        <mxCell id="cKwPMbHMemwAKIU6u7j6-41" value="④" style="text;html=1;strokeColor=none;fillColor=none;align=center;verticalAlign=middle;whiteSpace=wrap;rounded=0;strokeWidth=1;fontSize=17;" parent="1" vertex="1">
          <mxGeometry x="860" y="879.75" width="60" height="30" as="geometry" />
        </mxCell>
        <mxCell id="cKwPMbHMemwAKIU6u7j6-45" value="" style="edgeStyle=orthogonalEdgeStyle;rounded=0;orthogonalLoop=1;jettySize=auto;html=1;shape=flexArrow;strokeWidth=1;fillColor=#B3B3B3;strokeColor=none;fontSize=15;" parent="1" edge="1">
          <mxGeometry relative="1" as="geometry">
            <mxPoint x="174" y="921.75" as="sourcePoint" />
            <Array as="points" />
            <mxPoint x="260" y="922.25" as="targetPoint" />
          </mxGeometry>
        </mxCell>
      </root>
    </mxGraphModel>
  </diagram>
  <diagram id="3JgWwCBaLoRH0gbg7DUP" name="业务受理">
    <mxGraphModel dx="1434" dy="746" grid="1" gridSize="10" guides="1" tooltips="1" connect="1" arrows="1" fold="1" page="1" pageScale="1" pageWidth="827" pageHeight="1169" math="0" shadow="0">
      <root>
        <mxCell id="0" />
        <mxCell id="1" parent="0" />
        <mxCell id="t1norMAdkK_dM3Ci_SC5-1" value="业务受理" style="rounded=0;whiteSpace=wrap;html=1;fontSize=15;" parent="1" vertex="1">
          <mxGeometry x="669" y="892.5" width="120" height="60" as="geometry" />
        </mxCell>
        <mxCell id="t1norMAdkK_dM3Ci_SC5-2" value="&lt;font style=&quot;font-size: 15px;&quot;&gt;受理&lt;/font&gt;" style="rhombus;whiteSpace=wrap;html=1;" parent="1" vertex="1">
          <mxGeometry x="875" y="883" width="130" height="80" as="geometry" />
        </mxCell>
        <mxCell id="t1norMAdkK_dM3Ci_SC5-3" value="业务办结" style="rounded=0;whiteSpace=wrap;html=1;fontSize=15;" parent="1" vertex="1">
          <mxGeometry x="1095" y="893" width="120" height="60" as="geometry" />
        </mxCell>
        <mxCell id="t1norMAdkK_dM3Ci_SC5-4" value="编辑单据信息" style="rounded=0;whiteSpace=wrap;html=1;fontSize=15;" parent="1" vertex="1">
          <mxGeometry x="669" y="790" width="120" height="60" as="geometry" />
        </mxCell>
        <mxCell id="t1norMAdkK_dM3Ci_SC5-5" style="edgeStyle=orthogonalEdgeStyle;rounded=0;orthogonalLoop=1;jettySize=auto;html=1;shape=flexArrow;strokeWidth=1;fillColor=#B3B3B3;strokeColor=none;fontSize=15;" parent="1" source="t1norMAdkK_dM3Ci_SC5-7" edge="1">
          <mxGeometry relative="1" as="geometry">
            <mxPoint x="380" y="922.5" as="sourcePoint" />
            <Array as="points">
              <mxPoint x="580" y="922.5" />
              <mxPoint x="580" y="922.5" />
            </Array>
            <mxPoint x="470" y="922.5" as="targetPoint" />
          </mxGeometry>
        </mxCell>
        <mxCell id="t1norMAdkK_dM3Ci_SC5-6" value="" style="edgeStyle=orthogonalEdgeStyle;rounded=0;orthogonalLoop=1;jettySize=auto;html=1;shape=flexArrow;strokeWidth=1;fillColor=#B3B3B3;strokeColor=none;fontSize=15;" parent="1" target="t1norMAdkK_dM3Ci_SC5-7" edge="1">
          <mxGeometry relative="1" as="geometry">
            <mxPoint x="380" y="922.5" as="sourcePoint" />
            <Array as="points" />
            <mxPoint x="470" y="922.5" as="targetPoint" />
          </mxGeometry>
        </mxCell>
        <mxCell id="t1norMAdkK_dM3Ci_SC5-7" value="业务申请" style="rounded=0;whiteSpace=wrap;html=1;fontSize=15;" parent="1" vertex="1">
          <mxGeometry x="466" y="893" width="120" height="60" as="geometry" />
        </mxCell>
        <mxCell id="t1norMAdkK_dM3Ci_SC5-8" value="" style="edgeStyle=orthogonalEdgeStyle;rounded=0;orthogonalLoop=1;jettySize=auto;html=1;shape=flexArrow;strokeWidth=1;fillColor=#B3B3B3;strokeColor=none;fontSize=15;" parent="1" edge="1">
          <mxGeometry relative="1" as="geometry">
            <mxPoint x="585" y="922.5" as="sourcePoint" />
            <Array as="points" />
            <mxPoint x="670" y="923" as="targetPoint" />
          </mxGeometry>
        </mxCell>
        <mxCell id="t1norMAdkK_dM3Ci_SC5-9" value="" style="edgeStyle=orthogonalEdgeStyle;rounded=0;orthogonalLoop=1;jettySize=auto;html=1;shape=flexArrow;strokeWidth=1;fillColor=#B3B3B3;strokeColor=none;fontSize=15;" parent="1" edge="1">
          <mxGeometry relative="1" as="geometry">
            <mxPoint x="789" y="922.5" as="sourcePoint" />
            <Array as="points" />
            <mxPoint x="874" y="923" as="targetPoint" />
          </mxGeometry>
        </mxCell>
        <mxCell id="t1norMAdkK_dM3Ci_SC5-10" style="edgeStyle=orthogonalEdgeStyle;rounded=0;orthogonalLoop=1;jettySize=auto;html=1;shape=flexArrow;strokeWidth=1;fillColor=#B3B3B3;strokeColor=none;fontSize=15;exitX=0.5;exitY=0;exitDx=0;exitDy=0;entryX=0.5;entryY=0;entryDx=0;entryDy=0;" parent="1" source="t1norMAdkK_dM3Ci_SC5-2" target="t1norMAdkK_dM3Ci_SC5-4" edge="1">
          <mxGeometry relative="1" as="geometry">
            <mxPoint x="805" y="830" as="sourcePoint" />
            <Array as="points">
              <mxPoint x="940" y="740" />
              <mxPoint x="729" y="740" />
            </Array>
            <mxPoint x="665" y="650" as="targetPoint" />
          </mxGeometry>
        </mxCell>
        <mxCell id="t1norMAdkK_dM3Ci_SC5-11" style="edgeStyle=orthogonalEdgeStyle;rounded=0;orthogonalLoop=1;jettySize=auto;html=1;shape=flexArrow;strokeWidth=1;fillColor=#B3B3B3;strokeColor=none;fontSize=15;" parent="1" target="t1norMAdkK_dM3Ci_SC5-1" edge="1">
          <mxGeometry relative="1" as="geometry">
            <mxPoint x="729" y="850" as="sourcePoint" />
            <Array as="points">
              <mxPoint x="729" y="860" />
              <mxPoint x="729" y="860" />
            </Array>
            <mxPoint x="772" y="900" as="targetPoint" />
          </mxGeometry>
        </mxCell>
        <mxCell id="t1norMAdkK_dM3Ci_SC5-12" value="" style="edgeStyle=orthogonalEdgeStyle;rounded=0;orthogonalLoop=1;jettySize=auto;html=1;shape=flexArrow;strokeWidth=1;fillColor=#B3B3B3;strokeColor=none;fontSize=15;entryX=0;entryY=0.5;entryDx=0;entryDy=0;exitX=1;exitY=0.5;exitDx=0;exitDy=0;" parent="1" source="t1norMAdkK_dM3Ci_SC5-2" target="t1norMAdkK_dM3Ci_SC5-3" edge="1">
          <mxGeometry relative="1" as="geometry">
            <mxPoint x="975" y="1130" as="sourcePoint" />
            <Array as="points" />
            <mxPoint x="1090" y="922.5" as="targetPoint" />
          </mxGeometry>
        </mxCell>
        <mxCell id="t1norMAdkK_dM3Ci_SC5-13" style="edgeStyle=orthogonalEdgeStyle;rounded=0;orthogonalLoop=1;jettySize=auto;html=1;shape=flexArrow;strokeWidth=1;fillColor=#B3B3B3;strokeColor=none;fontSize=15;" parent="1" edge="1">
          <mxGeometry relative="1" as="geometry">
            <mxPoint x="1215" y="922" as="sourcePoint" />
            <Array as="points" />
            <mxPoint x="1310" y="922" as="targetPoint" />
          </mxGeometry>
        </mxCell>
        <mxCell id="t1norMAdkK_dM3Ci_SC5-14" value="" style="ellipse;fillColor=strokeColor;html=1;fontSize=15;" parent="1" vertex="1">
          <mxGeometry x="1310" y="909.75" width="25" height="25" as="geometry" />
        </mxCell>
        <mxCell id="t1norMAdkK_dM3Ci_SC5-15" value="通过" style="text;html=1;strokeColor=none;fillColor=none;align=center;verticalAlign=middle;whiteSpace=wrap;rounded=0;strokeWidth=1;fontSize=17;" parent="1" vertex="1">
          <mxGeometry x="1015" y="892.25" width="60" height="30" as="geometry" />
        </mxCell>
        <mxCell id="t1norMAdkK_dM3Ci_SC5-16" value="驳回" style="text;html=1;strokeColor=none;fillColor=none;align=center;verticalAlign=middle;whiteSpace=wrap;rounded=0;strokeWidth=1;fontSize=17;" parent="1" vertex="1">
          <mxGeometry x="885" y="805" width="60" height="30" as="geometry" />
        </mxCell>
        <mxCell id="t1norMAdkK_dM3Ci_SC5-17" value="⑤" style="text;html=1;strokeColor=none;fillColor=none;align=center;verticalAlign=middle;whiteSpace=wrap;rounded=0;strokeWidth=1;fontSize=17;" parent="1" vertex="1">
          <mxGeometry x="645" y="760" width="60" height="30" as="geometry" />
        </mxCell>
        <mxCell id="t1norMAdkK_dM3Ci_SC5-18" value="⑥" style="text;html=1;strokeColor=none;fillColor=none;align=center;verticalAlign=middle;whiteSpace=wrap;rounded=0;strokeWidth=1;fontSize=17;" parent="1" vertex="1">
          <mxGeometry x="1075" y="862.25" width="60" height="30" as="geometry" />
        </mxCell>
        <mxCell id="t1norMAdkK_dM3Ci_SC5-19" value="" style="ellipse;fillColor=strokeColor;html=1;fontSize=15;" parent="1" vertex="1">
          <mxGeometry x="150" y="909.75" width="25" height="25" as="geometry" />
        </mxCell>
        <mxCell id="t1norMAdkK_dM3Ci_SC5-20" value="业务配置" style="rounded=0;whiteSpace=wrap;html=1;fontSize=15;" parent="1" vertex="1">
          <mxGeometry x="260" y="892.25" width="120" height="60" as="geometry" />
        </mxCell>
        <mxCell id="t1norMAdkK_dM3Ci_SC5-21" value="①" style="text;html=1;strokeColor=none;fillColor=none;align=center;verticalAlign=middle;whiteSpace=wrap;rounded=0;strokeWidth=1;fontSize=17;" parent="1" vertex="1">
          <mxGeometry x="240" y="862.25" width="60" height="30" as="geometry" />
        </mxCell>
        <mxCell id="t1norMAdkK_dM3Ci_SC5-22" value="②" style="text;html=1;strokeColor=none;fillColor=none;align=center;verticalAlign=middle;whiteSpace=wrap;rounded=0;strokeWidth=1;fontSize=17;" parent="1" vertex="1">
          <mxGeometry x="440" y="863" width="60" height="30" as="geometry" />
        </mxCell>
        <mxCell id="t1norMAdkK_dM3Ci_SC5-23" value="③" style="text;html=1;strokeColor=none;fillColor=none;align=center;verticalAlign=middle;whiteSpace=wrap;rounded=0;strokeWidth=1;fontSize=17;" parent="1" vertex="1">
          <mxGeometry x="645" y="863" width="60" height="30" as="geometry" />
        </mxCell>
        <mxCell id="t1norMAdkK_dM3Ci_SC5-24" value="④" style="text;html=1;strokeColor=none;fillColor=none;align=center;verticalAlign=middle;whiteSpace=wrap;rounded=0;strokeWidth=1;fontSize=17;" parent="1" vertex="1">
          <mxGeometry x="860" y="879.75" width="60" height="30" as="geometry" />
        </mxCell>
        <mxCell id="t1norMAdkK_dM3Ci_SC5-25" value="" style="edgeStyle=orthogonalEdgeStyle;rounded=0;orthogonalLoop=1;jettySize=auto;html=1;shape=flexArrow;strokeWidth=1;fillColor=#B3B3B3;strokeColor=none;fontSize=15;" parent="1" edge="1">
          <mxGeometry relative="1" as="geometry">
            <mxPoint x="174" y="921.75" as="sourcePoint" />
            <Array as="points" />
            <mxPoint x="260" y="922.25" as="targetPoint" />
          </mxGeometry>
        </mxCell>
      </root>
    </mxGraphModel>
  </diagram>
  <diagram id="eljMvMPtWnrE3edsvD8t" name="标准实施信息收集">
    <mxGraphModel dx="1434" dy="746" grid="1" gridSize="10" guides="1" tooltips="1" connect="1" arrows="1" fold="1" page="1" pageScale="1" pageWidth="827" pageHeight="1169" math="0" shadow="0">
      <root>
        <mxCell id="0" />
        <mxCell id="1" parent="0" />
        <mxCell id="yyrlFFybOMTR--OxmMZo-1" value="输入关键字" style="rounded=0;whiteSpace=wrap;html=1;fontSize=15;" vertex="1" parent="1">
          <mxGeometry x="340" y="280" width="120" height="60" as="geometry" />
        </mxCell>
        <mxCell id="yyrlFFybOMTR--OxmMZo-2" style="edgeStyle=orthogonalEdgeStyle;rounded=0;orthogonalLoop=1;jettySize=auto;html=1;shape=flexArrow;strokeWidth=1;fillColor=#B3B3B3;strokeColor=none;fontSize=15;" edge="1" parent="1">
          <mxGeometry relative="1" as="geometry">
            <mxPoint x="270" y="390" as="sourcePoint" />
            <Array as="points">
              <mxPoint x="450" y="309.5" />
              <mxPoint x="450" y="309.5" />
            </Array>
            <mxPoint x="340" y="309.5" as="targetPoint" />
          </mxGeometry>
        </mxCell>
        <mxCell id="yyrlFFybOMTR--OxmMZo-3" value="" style="ellipse;fillColor=strokeColor;html=1;fontSize=15;" vertex="1" parent="1">
          <mxGeometry x="180" y="375" width="25" height="25" as="geometry" />
        </mxCell>
        <mxCell id="yyrlFFybOMTR--OxmMZo-4" value="" style="ellipse;fillColor=strokeColor;html=1;fontSize=15;" vertex="1" parent="1">
          <mxGeometry x="1010" y="375" width="25" height="25" as="geometry" />
        </mxCell>
        <mxCell id="yyrlFFybOMTR--OxmMZo-5" value="标准分级条件筛选" style="rounded=0;whiteSpace=wrap;html=1;fontSize=15;" vertex="1" parent="1">
          <mxGeometry x="340" y="430" width="120" height="60" as="geometry" />
        </mxCell>
        <mxCell id="yyrlFFybOMTR--OxmMZo-6" style="edgeStyle=orthogonalEdgeStyle;rounded=0;orthogonalLoop=1;jettySize=auto;html=1;shape=flexArrow;strokeWidth=1;fillColor=#B3B3B3;strokeColor=none;fontSize=15;exitX=1;exitY=0.5;exitDx=0;exitDy=0;" edge="1" parent="1" source="yyrlFFybOMTR--OxmMZo-3">
          <mxGeometry relative="1" as="geometry">
            <mxPoint x="270" y="390" as="sourcePoint" />
            <Array as="points">
              <mxPoint x="270" y="388" />
              <mxPoint x="270" y="460" />
            </Array>
            <mxPoint x="340" y="460" as="targetPoint" />
          </mxGeometry>
        </mxCell>
        <mxCell id="yyrlFFybOMTR--OxmMZo-7" style="edgeStyle=orthogonalEdgeStyle;rounded=0;orthogonalLoop=1;jettySize=auto;html=1;shape=flexArrow;strokeWidth=1;fillColor=#B3B3B3;strokeColor=none;fontSize=15;" edge="1" parent="1">
          <mxGeometry relative="1" as="geometry">
            <mxPoint x="370" y="340" as="sourcePoint" />
            <Array as="points">
              <mxPoint x="560" y="400" />
              <mxPoint x="560" y="400" />
            </Array>
            <mxPoint x="370" y="430" as="targetPoint" />
          </mxGeometry>
        </mxCell>
        <mxCell id="yyrlFFybOMTR--OxmMZo-8" style="edgeStyle=orthogonalEdgeStyle;rounded=0;orthogonalLoop=1;jettySize=auto;html=1;shape=flexArrow;strokeWidth=1;fillColor=#B3B3B3;strokeColor=none;fontSize=15;" edge="1" parent="1">
          <mxGeometry relative="1" as="geometry">
            <mxPoint x="420" y="430" as="sourcePoint" />
            <Array as="points">
              <mxPoint x="610" y="400" />
              <mxPoint x="610" y="400" />
            </Array>
            <mxPoint x="420" y="340" as="targetPoint" />
          </mxGeometry>
        </mxCell>
        <mxCell id="yyrlFFybOMTR--OxmMZo-9" value="收集信息清单" style="rounded=0;whiteSpace=wrap;html=1;fontSize=15;" vertex="1" parent="1">
          <mxGeometry x="490" y="357.5" width="120" height="60" as="geometry" />
        </mxCell>
        <mxCell id="yyrlFFybOMTR--OxmMZo-10" style="edgeStyle=orthogonalEdgeStyle;rounded=0;orthogonalLoop=1;jettySize=auto;html=1;shape=flexArrow;strokeWidth=1;fillColor=#B3B3B3;strokeColor=none;fontSize=15;entryX=0.5;entryY=0;entryDx=0;entryDy=0;" edge="1" parent="1" target="yyrlFFybOMTR--OxmMZo-9">
          <mxGeometry relative="1" as="geometry">
            <mxPoint x="460" y="309.5" as="sourcePoint" />
            <Array as="points">
              <mxPoint x="550" y="310" />
            </Array>
            <mxPoint x="550" y="309.5" as="targetPoint" />
          </mxGeometry>
        </mxCell>
        <mxCell id="yyrlFFybOMTR--OxmMZo-11" style="edgeStyle=orthogonalEdgeStyle;rounded=0;orthogonalLoop=1;jettySize=auto;html=1;shape=flexArrow;strokeWidth=1;fillColor=#B3B3B3;strokeColor=none;fontSize=15;entryX=0.5;entryY=1;entryDx=0;entryDy=0;" edge="1" parent="1" target="yyrlFFybOMTR--OxmMZo-9">
          <mxGeometry relative="1" as="geometry">
            <mxPoint x="460" y="459.5" as="sourcePoint" />
            <Array as="points">
              <mxPoint x="550" y="460" />
            </Array>
            <mxPoint x="550" y="459.5" as="targetPoint" />
          </mxGeometry>
        </mxCell>
        <mxCell id="yyrlFFybOMTR--OxmMZo-12" value="新增征集信息" style="rounded=0;whiteSpace=wrap;html=1;fontSize=15;" vertex="1" parent="1">
          <mxGeometry x="741" y="252.5" width="120" height="60" as="geometry" />
        </mxCell>
        <mxCell id="yyrlFFybOMTR--OxmMZo-13" value="编辑征集信息" style="rounded=0;whiteSpace=wrap;html=1;fontSize=15;" vertex="1" parent="1">
          <mxGeometry x="740" y="322.5" width="120" height="60" as="geometry" />
        </mxCell>
        <mxCell id="yyrlFFybOMTR--OxmMZo-14" value="删除征集信息" style="rounded=0;whiteSpace=wrap;html=1;fontSize=15;" vertex="1" parent="1">
          <mxGeometry x="740" y="392.5" width="120" height="60" as="geometry" />
        </mxCell>
        <mxCell id="yyrlFFybOMTR--OxmMZo-15" value="查看征集的反馈信息" style="rounded=0;whiteSpace=wrap;html=1;fontSize=15;" vertex="1" parent="1">
          <mxGeometry x="740" y="462.5" width="120" height="60" as="geometry" />
        </mxCell>
        <mxCell id="yyrlFFybOMTR--OxmMZo-16" style="edgeStyle=orthogonalEdgeStyle;rounded=0;orthogonalLoop=1;jettySize=auto;html=1;shape=flexArrow;strokeWidth=1;fillColor=#B3B3B3;strokeColor=none;fontSize=15;entryX=0;entryY=0.5;entryDx=0;entryDy=0;" edge="1" parent="1" target="yyrlFFybOMTR--OxmMZo-12">
          <mxGeometry relative="1" as="geometry">
            <mxPoint x="610" y="392.5" as="sourcePoint" />
            <Array as="points">
              <mxPoint x="660" y="393" />
              <mxPoint x="660" y="283" />
            </Array>
            <mxPoint x="650" y="270" as="targetPoint" />
          </mxGeometry>
        </mxCell>
        <mxCell id="yyrlFFybOMTR--OxmMZo-17" style="edgeStyle=orthogonalEdgeStyle;rounded=0;orthogonalLoop=1;jettySize=auto;html=1;shape=flexArrow;strokeWidth=1;fillColor=#B3B3B3;strokeColor=none;fontSize=15;entryX=0;entryY=0.5;entryDx=0;entryDy=0;" edge="1" parent="1" target="yyrlFFybOMTR--OxmMZo-13">
          <mxGeometry relative="1" as="geometry">
            <mxPoint x="610" y="392.5" as="sourcePoint" />
            <Array as="points">
              <mxPoint x="660" y="393" />
              <mxPoint x="660" y="353" />
            </Array>
            <mxPoint x="660" y="340" as="targetPoint" />
          </mxGeometry>
        </mxCell>
        <mxCell id="yyrlFFybOMTR--OxmMZo-18" style="edgeStyle=orthogonalEdgeStyle;rounded=0;orthogonalLoop=1;jettySize=auto;html=1;shape=flexArrow;strokeWidth=1;fillColor=#B3B3B3;strokeColor=none;fontSize=15;entryX=0;entryY=0.5;entryDx=0;entryDy=0;" edge="1" parent="1" target="yyrlFFybOMTR--OxmMZo-15">
          <mxGeometry relative="1" as="geometry">
            <mxPoint x="610" y="392.5" as="sourcePoint" />
            <Array as="points">
              <mxPoint x="660" y="393" />
              <mxPoint x="660" y="493" />
            </Array>
            <mxPoint x="700" y="392.5" as="targetPoint" />
          </mxGeometry>
        </mxCell>
        <mxCell id="yyrlFFybOMTR--OxmMZo-19" style="edgeStyle=orthogonalEdgeStyle;rounded=0;orthogonalLoop=1;jettySize=auto;html=1;shape=flexArrow;strokeWidth=1;fillColor=#B3B3B3;strokeColor=none;fontSize=15;entryX=0;entryY=0.5;entryDx=0;entryDy=0;" edge="1" parent="1" target="yyrlFFybOMTR--OxmMZo-14">
          <mxGeometry relative="1" as="geometry">
            <mxPoint x="610" y="394.5" as="sourcePoint" />
            <Array as="points">
              <mxPoint x="660" y="395" />
              <mxPoint x="660" y="423" />
            </Array>
            <mxPoint x="740" y="355" as="targetPoint" />
          </mxGeometry>
        </mxCell>
        <mxCell id="yyrlFFybOMTR--OxmMZo-20" style="edgeStyle=orthogonalEdgeStyle;rounded=0;orthogonalLoop=1;jettySize=auto;html=1;shape=flexArrow;strokeWidth=1;fillColor=#B3B3B3;strokeColor=none;fontSize=15;exitX=1;exitY=0.5;exitDx=0;exitDy=0;" edge="1" parent="1" source="yyrlFFybOMTR--OxmMZo-12">
          <mxGeometry relative="1" as="geometry">
            <mxPoint x="980" y="387" as="sourcePoint" />
            <Array as="points">
              <mxPoint x="930" y="283" />
              <mxPoint x="930" y="387" />
            </Array>
            <mxPoint x="1010" y="387" as="targetPoint" />
          </mxGeometry>
        </mxCell>
        <mxCell id="yyrlFFybOMTR--OxmMZo-21" style="edgeStyle=orthogonalEdgeStyle;rounded=0;orthogonalLoop=1;jettySize=auto;html=1;shape=flexArrow;strokeWidth=1;fillColor=#B3B3B3;strokeColor=none;fontSize=15;exitX=1;exitY=0.5;exitDx=0;exitDy=0;" edge="1" parent="1" source="yyrlFFybOMTR--OxmMZo-13">
          <mxGeometry relative="1" as="geometry">
            <mxPoint x="980" y="387" as="sourcePoint" />
            <Array as="points">
              <mxPoint x="930" y="353" />
              <mxPoint x="930" y="387" />
            </Array>
            <mxPoint x="1010" y="387" as="targetPoint" />
          </mxGeometry>
        </mxCell>
        <mxCell id="yyrlFFybOMTR--OxmMZo-22" style="edgeStyle=orthogonalEdgeStyle;rounded=0;orthogonalLoop=1;jettySize=auto;html=1;shape=flexArrow;strokeWidth=1;fillColor=#B3B3B3;strokeColor=none;fontSize=15;exitX=1;exitY=0.5;exitDx=0;exitDy=0;" edge="1" parent="1" source="yyrlFFybOMTR--OxmMZo-14">
          <mxGeometry relative="1" as="geometry">
            <mxPoint x="980" y="387" as="sourcePoint" />
            <Array as="points">
              <mxPoint x="930" y="423" />
              <mxPoint x="930" y="387" />
            </Array>
            <mxPoint x="1010" y="387" as="targetPoint" />
          </mxGeometry>
        </mxCell>
        <mxCell id="yyrlFFybOMTR--OxmMZo-23" style="edgeStyle=orthogonalEdgeStyle;rounded=0;orthogonalLoop=1;jettySize=auto;html=1;shape=flexArrow;strokeWidth=1;fillColor=#B3B3B3;strokeColor=none;fontSize=15;exitX=1;exitY=0.5;exitDx=0;exitDy=0;" edge="1" parent="1" source="yyrlFFybOMTR--OxmMZo-15">
          <mxGeometry relative="1" as="geometry">
            <mxPoint x="980" y="387" as="sourcePoint" />
            <Array as="points">
              <mxPoint x="930" y="493" />
              <mxPoint x="930" y="387" />
            </Array>
            <mxPoint x="1010" y="387" as="targetPoint" />
          </mxGeometry>
        </mxCell>
        <mxCell id="yyrlFFybOMTR--OxmMZo-24" value="①" style="text;html=1;strokeColor=none;fillColor=none;align=center;verticalAlign=middle;whiteSpace=wrap;rounded=0;strokeWidth=1;fontSize=17;" vertex="1" parent="1">
          <mxGeometry x="370" y="250" width="60" height="30" as="geometry" />
        </mxCell>
        <mxCell id="yyrlFFybOMTR--OxmMZo-25" value="②" style="text;html=1;strokeColor=none;fillColor=none;align=center;verticalAlign=middle;whiteSpace=wrap;rounded=0;strokeWidth=1;fontSize=17;" vertex="1" parent="1">
          <mxGeometry x="370" y="490" width="60" height="30" as="geometry" />
        </mxCell>
        <mxCell id="yyrlFFybOMTR--OxmMZo-26" value="③" style="text;html=1;strokeColor=none;fillColor=none;align=center;verticalAlign=middle;whiteSpace=wrap;rounded=0;strokeWidth=1;fontSize=17;" vertex="1" parent="1">
          <mxGeometry x="470" y="327.5" width="60" height="30" as="geometry" />
        </mxCell>
        <mxCell id="yyrlFFybOMTR--OxmMZo-27" value="④" style="text;html=1;strokeColor=none;fillColor=none;align=center;verticalAlign=middle;whiteSpace=wrap;rounded=0;strokeWidth=1;fontSize=17;" vertex="1" parent="1">
          <mxGeometry x="700" y="240" width="60" height="30" as="geometry" />
        </mxCell>
        <mxCell id="yyrlFFybOMTR--OxmMZo-28" value="⑤" style="text;html=1;strokeColor=none;fillColor=none;align=center;verticalAlign=middle;whiteSpace=wrap;rounded=0;strokeWidth=1;fontSize=17;" vertex="1" parent="1">
          <mxGeometry x="700" y="310" width="60" height="30" as="geometry" />
        </mxCell>
        <mxCell id="yyrlFFybOMTR--OxmMZo-29" value="⑥" style="text;html=1;strokeColor=none;fillColor=none;align=center;verticalAlign=middle;whiteSpace=wrap;rounded=0;strokeWidth=1;fontSize=17;" vertex="1" parent="1">
          <mxGeometry x="700" y="382.5" width="60" height="30" as="geometry" />
        </mxCell>
        <mxCell id="yyrlFFybOMTR--OxmMZo-30" value="⑦" style="text;html=1;strokeColor=none;fillColor=none;align=center;verticalAlign=middle;whiteSpace=wrap;rounded=0;strokeWidth=1;fontSize=17;" vertex="1" parent="1">
          <mxGeometry x="700" y="452.5" width="60" height="30" as="geometry" />
        </mxCell>
        <mxCell id="h_wxDgnNZdVaaCitnlZX-14" value="标准库反馈" style="rounded=0;whiteSpace=wrap;html=1;fontSize=15;" vertex="1" parent="1">
          <mxGeometry x="610" y="630" width="120" height="60" as="geometry" />
        </mxCell>
        <mxCell id="h_wxDgnNZdVaaCitnlZX-17" value="征集标准反馈" style="rounded=0;whiteSpace=wrap;html=1;fontSize=15;" vertex="1" parent="1">
          <mxGeometry x="741" y="630" width="120" height="60" as="geometry" />
        </mxCell>
        <mxCell id="h_wxDgnNZdVaaCitnlZX-20" style="edgeStyle=orthogonalEdgeStyle;rounded=0;orthogonalLoop=1;jettySize=auto;html=1;shape=flexArrow;strokeWidth=1;fillColor=#B3B3B3;strokeColor=none;fontSize=15;exitX=0.5;exitY=0;exitDx=0;exitDy=0;entryX=0.5;entryY=1;entryDx=0;entryDy=0;" edge="1" parent="1" source="h_wxDgnNZdVaaCitnlZX-14" target="yyrlFFybOMTR--OxmMZo-15">
          <mxGeometry relative="1" as="geometry">
            <mxPoint x="637" y="580" as="sourcePoint" />
            <Array as="points">
              <mxPoint x="670" y="580" />
              <mxPoint x="800" y="580" />
            </Array>
            <mxPoint x="637" y="490" as="targetPoint" />
          </mxGeometry>
        </mxCell>
        <mxCell id="PRQxU5w-nbc2cZZ4PyKd-2" style="edgeStyle=orthogonalEdgeStyle;rounded=0;orthogonalLoop=1;jettySize=auto;html=1;shape=flexArrow;strokeWidth=1;fillColor=#B3B3B3;strokeColor=none;fontSize=15;exitX=0.5;exitY=0;exitDx=0;exitDy=0;" edge="1" parent="1" source="PRQxU5w-nbc2cZZ4PyKd-5">
          <mxGeometry relative="1" as="geometry">
            <mxPoint x="935" y="622.5" as="sourcePoint" />
            <Array as="points">
              <mxPoint x="935" y="580" />
              <mxPoint x="800" y="580" />
            </Array>
            <mxPoint x="800" y="522.5" as="targetPoint" />
          </mxGeometry>
        </mxCell>
        <mxCell id="PRQxU5w-nbc2cZZ4PyKd-3" style="edgeStyle=orthogonalEdgeStyle;rounded=0;orthogonalLoop=1;jettySize=auto;html=1;shape=flexArrow;strokeWidth=1;fillColor=#B3B3B3;strokeColor=none;fontSize=15;" edge="1" parent="1" source="h_wxDgnNZdVaaCitnlZX-17">
          <mxGeometry relative="1" as="geometry">
            <mxPoint x="800.36" y="627" as="sourcePoint" />
            <Array as="points">
              <mxPoint x="800" y="583" />
              <mxPoint x="800" y="583" />
            </Array>
            <mxPoint x="799.6" y="522.5" as="targetPoint" />
          </mxGeometry>
        </mxCell>
        <mxCell id="PRQxU5w-nbc2cZZ4PyKd-5" value="自行反馈" style="rounded=0;whiteSpace=wrap;html=1;fontSize=15;" vertex="1" parent="1">
          <mxGeometry x="875" y="630" width="120" height="60" as="geometry" />
        </mxCell>
      </root>
    </mxGraphModel>
  </diagram>
  <diagram name="第 1 页" id="lIhT-mCteKFdtH8dWYPj">
    <mxGraphModel dx="1434" dy="746" grid="1" gridSize="10" guides="1" tooltips="1" connect="1" arrows="1" fold="1" page="1" pageScale="1" pageWidth="827" pageHeight="1169" math="0" shadow="0">
      <root>
        <mxCell id="0" />
        <mxCell id="1" parent="0" />
        <mxCell id="51YF_xSuCGdGbw-6Dj2v-24" style="edgeStyle=orthogonalEdgeStyle;rounded=0;orthogonalLoop=1;jettySize=auto;html=1;" parent="1" edge="1">
          <mxGeometry relative="1" as="geometry">
            <mxPoint x="370" y="182" as="sourcePoint" />
            <mxPoint x="280" y="272" as="targetPoint" />
            <Array as="points">
              <mxPoint x="370" y="210" />
              <mxPoint x="280" y="210" />
            </Array>
          </mxGeometry>
        </mxCell>
        <mxCell id="51YF_xSuCGdGbw-6Dj2v-25" style="edgeStyle=orthogonalEdgeStyle;rounded=0;orthogonalLoop=1;jettySize=auto;html=1;" parent="1" edge="1">
          <mxGeometry relative="1" as="geometry">
            <mxPoint x="370" y="180" as="sourcePoint" />
            <mxPoint x="440" y="270" as="targetPoint" />
            <Array as="points">
              <mxPoint x="370" y="210" />
              <mxPoint x="440" y="210" />
            </Array>
          </mxGeometry>
        </mxCell>
        <mxCell id="51YF_xSuCGdGbw-6Dj2v-38" style="edgeStyle=orthogonalEdgeStyle;rounded=0;orthogonalLoop=1;jettySize=auto;html=1;exitX=0.5;exitY=1;exitDx=0;exitDy=0;exitPerimeter=0;" parent="1" target="51YF_xSuCGdGbw-6Dj2v-13" edge="1">
          <mxGeometry relative="1" as="geometry">
            <mxPoint x="370" y="180" as="sourcePoint" />
            <Array as="points">
              <mxPoint x="370" y="210" />
              <mxPoint x="120" y="210" />
            </Array>
          </mxGeometry>
        </mxCell>
        <mxCell id="51YF_xSuCGdGbw-6Dj2v-39" style="edgeStyle=orthogonalEdgeStyle;rounded=0;orthogonalLoop=1;jettySize=auto;html=1;exitX=0.89;exitY=0.89;exitDx=0;exitDy=0;exitPerimeter=0;" parent="1" target="51YF_xSuCGdGbw-6Dj2v-5" edge="1">
          <mxGeometry relative="1" as="geometry">
            <mxPoint x="377.79999999999995" y="177.80000000000007" as="sourcePoint" />
            <Array as="points">
              <mxPoint x="370" y="178" />
              <mxPoint x="370" y="210" />
              <mxPoint x="600" y="210" />
            </Array>
          </mxGeometry>
        </mxCell>
        <mxCell id="51YF_xSuCGdGbw-6Dj2v-33" style="edgeStyle=orthogonalEdgeStyle;rounded=0;orthogonalLoop=1;jettySize=auto;html=1;exitX=0.5;exitY=1;exitDx=0;exitDy=0;" parent="1" source="51YF_xSuCGdGbw-6Dj2v-5" target="51YF_xSuCGdGbw-6Dj2v-6" edge="1">
          <mxGeometry relative="1" as="geometry" />
        </mxCell>
        <mxCell id="51YF_xSuCGdGbw-6Dj2v-42" style="edgeStyle=orthogonalEdgeStyle;rounded=0;orthogonalLoop=1;jettySize=auto;html=1;exitX=1;exitY=0.5;exitDx=0;exitDy=0;entryX=0.5;entryY=0;entryDx=0;entryDy=0;" parent="1" source="51YF_xSuCGdGbw-6Dj2v-5" target="51YF_xSuCGdGbw-6Dj2v-12" edge="1">
          <mxGeometry relative="1" as="geometry">
            <Array as="points">
              <mxPoint x="690" y="270" />
              <mxPoint x="690" y="450" />
              <mxPoint x="370" y="450" />
            </Array>
          </mxGeometry>
        </mxCell>
        <mxCell id="51YF_xSuCGdGbw-6Dj2v-5" value="&lt;font style=&quot;font-size: 14px;&quot;&gt;输入专家姓名、专业领域、任职单位关键字&lt;/font&gt;" style="rounded=0;whiteSpace=wrap;html=1;" parent="1" vertex="1">
          <mxGeometry x="540" y="240" width="120" height="60" as="geometry" />
        </mxCell>
        <mxCell id="51YF_xSuCGdGbw-6Dj2v-31" style="edgeStyle=orthogonalEdgeStyle;rounded=0;orthogonalLoop=1;jettySize=auto;html=1;exitX=0.5;exitY=1;exitDx=0;exitDy=0;entryX=0.5;entryY=0;entryDx=0;entryDy=0;" parent="1" edge="1">
          <mxGeometry relative="1" as="geometry">
            <mxPoint x="599" y="400" as="sourcePoint" />
            <mxPoint x="369" y="480" as="targetPoint" />
            <Array as="points">
              <mxPoint x="599" y="450" />
              <mxPoint x="369" y="450" />
            </Array>
          </mxGeometry>
        </mxCell>
        <mxCell id="51YF_xSuCGdGbw-6Dj2v-6" value="&lt;font style=&quot;font-size: 14px;&quot;&gt;专家业务类别条件筛选&lt;/font&gt;" style="rounded=0;whiteSpace=wrap;html=1;" parent="1" vertex="1">
          <mxGeometry x="540" y="350" width="120" height="60" as="geometry" />
        </mxCell>
        <mxCell id="51YF_xSuCGdGbw-6Dj2v-34" style="edgeStyle=orthogonalEdgeStyle;rounded=0;orthogonalLoop=1;jettySize=auto;html=1;exitX=0.5;exitY=1;exitDx=0;exitDy=0;" parent="1" source="51YF_xSuCGdGbw-6Dj2v-12" target="51YF_xSuCGdGbw-6Dj2v-19" edge="1">
          <mxGeometry relative="1" as="geometry" />
        </mxCell>
        <mxCell id="51YF_xSuCGdGbw-6Dj2v-12" value="&lt;span style=&quot;font-size: 14px;&quot;&gt;专家列表&lt;/span&gt;" style="rounded=0;whiteSpace=wrap;html=1;" parent="1" vertex="1">
          <mxGeometry x="310" y="480" width="120" height="60" as="geometry" />
        </mxCell>
        <mxCell id="51YF_xSuCGdGbw-6Dj2v-28" style="edgeStyle=orthogonalEdgeStyle;rounded=0;orthogonalLoop=1;jettySize=auto;html=1;exitX=0.5;exitY=1;exitDx=0;exitDy=0;" parent="1" edge="1">
          <mxGeometry relative="1" as="geometry">
            <mxPoint x="119" y="270" as="sourcePoint" />
            <mxPoint x="369" y="480" as="targetPoint" />
            <Array as="points">
              <mxPoint x="119" y="450" />
              <mxPoint x="369" y="450" />
            </Array>
          </mxGeometry>
        </mxCell>
        <mxCell id="51YF_xSuCGdGbw-6Dj2v-13" value="&lt;span style=&quot;font-size: 14px;&quot;&gt;增加专家信息&lt;/span&gt;" style="rounded=0;whiteSpace=wrap;html=1;" parent="1" vertex="1">
          <mxGeometry x="60" y="240" width="120" height="60" as="geometry" />
        </mxCell>
        <mxCell id="51YF_xSuCGdGbw-6Dj2v-41" style="edgeStyle=orthogonalEdgeStyle;rounded=0;orthogonalLoop=1;jettySize=auto;html=1;exitX=0.5;exitY=1;exitDx=0;exitDy=0;entryX=0.5;entryY=0;entryDx=0;entryDy=0;" parent="1" source="51YF_xSuCGdGbw-6Dj2v-15" target="51YF_xSuCGdGbw-6Dj2v-12" edge="1">
          <mxGeometry relative="1" as="geometry">
            <Array as="points">
              <mxPoint x="280" y="450" />
              <mxPoint x="370" y="450" />
            </Array>
          </mxGeometry>
        </mxCell>
        <mxCell id="51YF_xSuCGdGbw-6Dj2v-15" value="&lt;font style=&quot;font-size: 14px;&quot;&gt;编辑专家信息&lt;/font&gt;" style="rounded=0;whiteSpace=wrap;html=1;" parent="1" vertex="1">
          <mxGeometry x="220" y="240" width="120" height="60" as="geometry" />
        </mxCell>
        <mxCell id="51YF_xSuCGdGbw-6Dj2v-30" style="edgeStyle=orthogonalEdgeStyle;rounded=0;orthogonalLoop=1;jettySize=auto;html=1;exitX=0.5;exitY=1;exitDx=0;exitDy=0;entryX=0.5;entryY=0;entryDx=0;entryDy=0;" parent="1" edge="1">
          <mxGeometry relative="1" as="geometry">
            <mxPoint x="439" y="270" as="sourcePoint" />
            <mxPoint x="369" y="480" as="targetPoint" />
            <Array as="points">
              <mxPoint x="439" y="450" />
              <mxPoint x="369" y="450" />
            </Array>
          </mxGeometry>
        </mxCell>
        <mxCell id="51YF_xSuCGdGbw-6Dj2v-16" value="&lt;span style=&quot;font-size: 14px;&quot;&gt;删除专家信息&lt;/span&gt;" style="rounded=0;whiteSpace=wrap;html=1;" parent="1" vertex="1">
          <mxGeometry x="380" y="240" width="120" height="60" as="geometry" />
        </mxCell>
        <mxCell id="51YF_xSuCGdGbw-6Dj2v-19" value="&lt;span style=&quot;font-size: 14px;&quot;&gt;查看某一专家详情&lt;/span&gt;" style="rounded=0;whiteSpace=wrap;html=1;" parent="1" vertex="1">
          <mxGeometry x="310" y="570" width="120" height="60" as="geometry" />
        </mxCell>
        <mxCell id="51YF_xSuCGdGbw-6Dj2v-35" style="edgeStyle=orthogonalEdgeStyle;rounded=0;orthogonalLoop=1;jettySize=auto;html=1;exitX=0.5;exitY=1;exitDx=0;exitDy=0;entryX=0.5;entryY=0;entryDx=0;entryDy=0;entryPerimeter=0;" parent="1" source="51YF_xSuCGdGbw-6Dj2v-19" edge="1">
          <mxGeometry relative="1" as="geometry">
            <mxPoint x="370" y="660" as="targetPoint" />
          </mxGeometry>
        </mxCell>
        <mxCell id="ROtm9ogBgkxQhIlEVv0w-1" value="" style="ellipse;shape=doubleEllipse;whiteSpace=wrap;html=1;aspect=fixed;" parent="1" vertex="1">
          <mxGeometry x="355" y="660" width="30" height="30" as="geometry" />
        </mxCell>
        <mxCell id="ROtm9ogBgkxQhIlEVv0w-2" value="" style="ellipse;shape=doubleEllipse;whiteSpace=wrap;html=1;aspect=fixed;" parent="1" vertex="1">
          <mxGeometry x="355" y="150" width="30" height="30" as="geometry" />
        </mxCell>
      </root>
    </mxGraphModel>
  </diagram>
</mxfile>
